<?xml version="1.0" standalone="no"?>
<!DOCTYPE svg PUBLIC "-//W3C//DTD SVG 1.1//EN" "http://www.w3.org/Graphics/SVG/1.1/DTD/svg11.dtd" >
<svg xmlns="http://www.w3.org/2000/svg">
<metadata>Generated by IcoMoon</metadata>
<defs>
<font id="icomoon" horiz-adv-x="1024">
<font-face units-per-em="1024" ascent="960" descent="-64" />
<missing-glyph horiz-adv-x="1024" />
<glyph unicode="&#x20;" horiz-adv-x="512" d="" />
<glyph unicode="&#xe900;" glyph-name="manual" d="M507.022 37.689c-12.8 3.556-26.311 7.111-39.822 9.956-77.511 14.933-135.822 56.889-177.778 123.022-36.978 57.6-73.244 115.2-110.933 172.089-54.756 83.2-16.356 196.267 99.556 201.244 2.133 0 4.978 0.711 10.667 2.133 0 41.956-0.711 84.622 0 127.289 0.711 45.511 8.533 89.6 51.911 112.356 16.356 8.533 61.867 7.822 78.933 15.644 22.756 10.667 16.356 31.289 38.4 44.8 34.133 21.333 60.444 23.467 94.578-2.844 18.489-14.933 22.044-32.711 27.733-32.711 54.044 4.978 66.133 2.844 95.289-43.378 12.089-19.911 43.378-14.222 50.489-15.644 68.978-13.511 91.733-68.267 92.444-118.044 1.422-113.778 2.844-226.844-0.711-340.622-2.844-92.444-34.844-172.8-120.889-219.733-31.289-17.067-68.267-24.178-103.111-35.556-29.156 0-57.6 0-86.756 0zM366.222 374.756c-20.622 28.444-36.267 51.2-53.333 73.244-16.356 20.622-41.956 24.889-61.867 12.089-19.2-12.089-25.6-37.689-15.644-61.156 2.844-6.4 6.4-12.089 9.956-17.778 32-49.778 65.422-98.133 94.578-148.622 48.356-84.622 120.889-119.467 216.178-118.044 113.778 2.133 183.467 66.133 184.889 179.911 2.133 112.356 0.711 225.422 0 337.778 0 29.867-15.644 46.933-39.822 46.222-22.756-0.711-36.267-17.778-36.267-46.222 0-47.644 0.711-95.289-0.711-143.644 0-8.533-7.822-17.067-12.089-26.311-3.556 8.533-10.667 17.067-10.667 24.889-0.711 73.244 0 146.489-0.711 220.444 0 29.867-14.222 47.644-37.689 47.644s-36.978-17.067-37.689-47.644c0-61.156 0-123.022 0-184.178 0-5.689 1.422-12.8-0.711-17.778-2.133-6.4-7.822-11.378-11.378-17.067-4.267 5.689-9.244 10.667-12.089 16.356-2.133 4.978-0.711 12.089-0.711 17.778 0 69.689 0 140.089 0 209.778 0 31.289-12.8 47.644-36.978 48.356-24.889 0.711-39.111-16.356-39.111-49.067 0-63.289 0-126.578 0-189.156 0-12.8 0.711-25.6-0.711-38.4-0.711-5.689-6.4-10.667-9.244-15.644-4.978 4.978-10.667 9.244-13.511 14.933-2.133 4.978-0.711 11.378-0.711 17.778 0 55.467 0 110.933 0 166.4 0 24.889-13.511 41.244-34.844 42.667-22.044 1.422-37.689-14.222-40.533-40.533-0.711-7.822-0.711-15.644-0.711-22.756 2.133-95.289 2.133-189.867 2.133-292.267zM0 467.911c7.111 32 12.089 64.711 21.333 96.711 21.333 77.511 61.156 145.778 115.911 204.8 3.556 4.267 8.533 7.822 16.356 14.933 0-39.822 0.711-75.378-0.711-110.933 0-7.111-5.689-13.511-9.956-20.622-89.6-154.311-89.6-308.622 0-462.933 5.689-10.667 9.244-23.467 9.956-35.556 1.422-30.578 0.711-60.444 0.711-96.711-50.489 49.067-87.467 100.978-110.222 160.711-17.067 44.8-26.311 92.444-38.4 137.956-2.133 6.4-3.556 12.8-4.978 19.2 0 31.289 0 61.867 0 92.444zM1024 375.467c-7.111-32-12.089-65.422-21.333-96.711-22.044-78.222-62.578-147.2-117.333-206.933-3.556-3.556-7.111-6.4-14.222-12.8 0 39.822-0.711 75.378 0.711 110.933 0 7.111 5.689 13.511 9.956 19.911 89.6 154.311 89.6 308.622 0 462.933-5.689 10.667-9.244 23.467-9.956 35.556-1.422 30.578-0.711 60.444-0.711 98.844 17.778-20.622 32-34.844 44.089-51.2 56.889-73.244 92.444-156.444 103.822-248.889 0.711-6.4 3.556-12.8 4.978-19.911 0-29.867 0-60.444 0-91.733z" />
<glyph unicode="&#xe901;" glyph-name="policy" d="M0 480.711c7.111 30.578 12.089 61.867 20.622 91.733 23.467 83.2 66.844 155.733 132.978 222.578-4.978-57.6 6.4-106.667-22.044-157.867-78.222-140.089-73.956-283.733 4.267-423.822 12.8-22.756 19.911-44.089 18.489-69.689-1.422-23.467 0-47.644 0-71.822-2.844-2.844-5.689-4.978-8.533-7.822-4.267 7.822-7.822 16.356-13.511 22.756-71.111 80.356-114.489 172.089-128 277.333-0.711 4.978-2.844 9.956-4.267 14.222 0 34.133 0 68.267 0 102.4zM1024 378.311c-7.111-30.578-12.089-61.867-20.622-91.733-23.467-83.2-78.933-175.644-132.978-219.022 4.267 54.044-6.4 103.111 22.044 154.311 78.222 140.089 73.956 283.733-4.267 424.533-12.8 22.756-19.911 44.089-18.489 69.689 1.422 23.467 0 47.644 0 77.511 9.244-8.533 14.933-13.511 19.911-19.2 71.111-79.644 115.2-172.089 128.711-278.756 0.711-4.978 2.844-9.244 4.267-14.222 1.422-34.844 1.422-68.978 1.422-103.111zM510.578 96.711c-56.178 0-112.356 0-168.533 0-70.4 0-111.644 40.533-111.644 110.933 0 164.267 0 329.244 0 493.511 0 71.111 40.533 111.644 110.933 111.644 63.289 0 125.867 0.711 189.156 0 24.889 0 50.489-2.133 74.667-6.4 12.089-2.133 25.6-9.956 34.844-19.2 43.378-44.089 84.622-88.889 126.578-133.689 16.356-17.067 27.022-35.556 27.022-61.156 0-16.356-0.711-33.422-0.711-50.489 0.711-112.356 0.711-225.422 0-337.778 0-67.556-41.244-108.089-108.8-108.8-57.6 1.422-115.2 1.422-173.511 1.422zM548.267 763.022c-69.689 0-135.822 0-202.667 0-48.356 0-64-16.356-64-64.711 0-162.133 0-324.267 0-486.4 0-46.933 16.356-63.289 62.578-63.289 111.644 0 223.289 0 334.933 0 46.933 0 62.578 15.644 63.289 63.289 0 107.378 0 214.756 0 322.133 0 7.111-0.711 14.933-1.422 25.6-64.711 0-128 0-192.711 0 0 68.267 0 133.689 0 203.378zM598.756 758.044c0-53.333 0-100.267 0-147.2 46.222 0 91.022 0 139.378 0-46.933 49.778-91.022 96.711-139.378 147.2zM643.556 478.578c0-16.356 0-30.578 0-46.933-87.467 0-173.511 0-261.689 0 0 14.933 0 29.867 0 46.933 86.044 0 172.8 0 261.689 0zM642.844 401.778c0-15.644 0-30.578 0-46.933-87.467 0-174.222 0-262.4 0 0 15.644 0 30.578 0 46.933 86.756 0 173.511 0 262.4 0zM380.444 278.756c0 15.644 0 29.867 0 46.222 46.222 0 92.444 0 140.089 0 0-14.933 0-29.867 0-46.222-45.511 0-91.022 0-140.089 0z" />
<glyph unicode="&#xe902;" glyph-name="exchange" d="M269.192 314.072v267.189h-48.762v62.789h169.665v-62.789h-48.762v-267.189h48.762v-62.789h-169.665v62.789h48.762zM430.174 581.928v62.789h169.665v-62.789h-27.387l48.094-68.801 51.434 68.801h-38.742v62.789h169.665v-62.789h-49.43l-92.848-122.907 102.868-144.282h38.074v-62.789h-168.997v62.789h44.086l-59.449 85.5-60.117-85.5h43.418v-62.789h-170.333v62.789h41.414l104.871 141.61-89.508 125.579h-56.778zM510.998 957.996c-281.884 0-510.998-229.114-510.998-510.998 0-282.552 229.114-510.998 510.998-510.998 282.552 0 510.998 229.114 510.998 510.998 0.668 281.884-228.446 510.998-510.998 510.998zM510.998-6.554c-250.489 0-453.553 203.063-453.553 453.553s203.063 453.553 453.553 453.553 453.553-203.063 453.553-453.553-203.063-453.553-453.553-453.553zM510.998 920.59c-261.177 0-473.592-212.415-473.592-473.592 0-261.845 212.415-473.592 473.592-473.592 261.845 0 473.592 212.415 473.592 473.592 0.668 261.177-211.747 473.592-473.592 473.592zM510.998 26.844c-231.786 0-420.154 188.368-420.154 420.154s188.368 420.154 420.154 420.154 420.154-188.368 420.154-420.154-188.368-420.154-420.154-420.154z" />
<glyph unicode="&#xe903;" glyph-name="commit_i" d="M512-64c-283.022 0-512 228.978-512 512s228.978 512 512 512c283.022 0 512-228.978 512-512s-228.978-512-512-512zM512 21.333c235.378 0 426.667 191.289 426.667 426.667s-191.289 426.667-426.667 426.667-426.667-191.289-426.667-426.667 191.289-426.667 426.667-426.667zM269.511 247.467c12.8 0 23.467 11.378 24.178 24.889 0 14.222-10.667 25.6-24.178 25.6-12.8 0-23.467-11.378-24.178-24.889 0-14.222 10.667-25.6 24.178-25.6zM603.733 297.956c12.8 0 23.467 11.378 24.178 24.889 0 14.222-10.667 25.6-24.178 25.6-12.8 0-23.467-11.378-24.178-24.889 0.711-13.511 11.378-25.6 24.178-25.6zM436.622 475.733c0 13.511-9.956 25.6-22.756 26.311-13.511 0.711-24.889-10.667-24.889-24.889s10.667-26.311 23.467-26.311c12.8 0 24.178 11.378 24.178 24.889zM746.667 603.733c12.8 0 24.178 10.667 24.178 24.178 0.711 14.222-9.956 26.311-23.467 26.311s-24.178-11.378-24.178-24.889c0-13.511 10.667-24.889 23.467-25.6zM819.2 617.956c-4.978-12.089-8.533-25.6-15.644-36.267-14.222-20.622-34.844-29.867-59.022-29.156-4.267 0-6.4-1.422-8.533-4.978-25.6-55.467-51.911-110.933-78.222-166.4-1.422-3.556-1.422-6.4 1.422-9.956 34.844-44.8 11.378-113.778-42.667-123.733-46.222-8.533-86.756 29.867-83.911 79.644 0 1.422 0 2.844 0.711 3.556 4.978 11.378 0 17.067-8.533 23.467-24.178 18.489-47.644 37.689-71.822 56.889-13.511-8.533-23.467-14.222-41.956-12.8-1.422 0-5.689 1.422-7.111 2.133-11.378 4.978-14.933-1.422-20.622-9.956-17.067-25.6-35.556-51.2-53.333-76.089 14.222-25.6 16.356-51.2 4.267-77.511-14.933-31.289-44.8-44.8-71.822-41.244-34.133 4.978-56.178 28.444-61.867 63.289-8.533 53.333 36.267 99.556 86.044 87.467 4.978-1.422 7.111 0 9.956 4.267 17.778 26.311 36.267 51.911 54.756 77.511 2.844 4.267 2.844 7.111 0.711 12.089-12.8 26.311-12.089 52.622 2.844 77.511 14.933 25.6 37.689 36.978 66.133 34.844 43.378-2.844 73.956-47.644 64-92.444-0.711-4.978-0.711-7.111 2.844-9.956 24.889-19.911 49.778-39.822 74.667-59.733 2.844-2.133 4.978-2.844 8.533-0.711 12.089 7.822 24.889 10.667 39.111 9.956 2.133 0 6.4 2.133 7.111 4.267 26.311 55.467 52.622 111.644 78.933 167.822 0.711 2.133 0.711 6.4-0.711 7.822-19.2 26.311-22.756 54.756-8.533 83.911s38.4 42.667 68.978 41.956c31.289-1.422 59.022-28.444 64.711-61.156 0-1.422 0.711-2.844 0.711-4.978-2.133-7.111-2.133-13.511-2.133-21.333z" />
<glyph unicode="&#xe904;" glyph-name="latency" d="M896 767.289c0 160.711 0 192.711 0 192.711h-768c0 0 0-31.289 0-192.711 0-160.711 256-289.422 256-289.422v-60.444c0 0-256-96.711-256-289.422s0-192.711 0-192.711h768c0 0 0 0.711 0 192.711 0 191.289-257.422 289.422-257.422 289.422v60.444c0 0 257.422 129.422 257.422 289.422zM590.222 361.956c2.133-0.711 235.378-86.044 235.378-233.956v-117.333h-627.911v119.467c0 147.911 233.956 232.533 236.089 233.244l14.222 14.933v136.533l-7.111 17.067c-64 29.156-243.2 135.111-243.2 236.8v127.289h628.622v-129.422c0-100.978-179.2-207.644-242.489-236.8l-9.956-17.067v-135.822l16.356-14.933zM511.289 568.178c-107.378 0-253.867 150.756-253.867 263.822 71.111 0 0 0 0 0v0c0 0 362.667 0 508.444 0-0.711-157.867-147.2-263.822-254.578-263.822zM756.622 64h-489.244c0 0 0 0 0 0 4.267 4.267 95.289 128 243.911 128 164.267 0 241.778-124.444 245.333-128 0 0 0 0 0 0z" />
<glyph unicode="&#xe905;" glyph-name="loss" d="M353.422-39.111c-204.8 66.844-353.422 259.556-353.422 487.111 0 210.489 126.578 391.111 307.911 470.044 82.489-93.867 178.489-214.044 178.489-214.044l-153.6-204.8 179.2-256c0 0-87.467-174.933-158.578-282.311zM512-64c98.844 103.111 179.2 307.2 179.2 307.2l-179.2 256 179.2 204.8c0 0-108.8 162.133-179.2 256 283.022 0 512-228.978 512-512s-228.978-512-512-512zM319.289 66.844c35.556 59.733 71.111 126.578 93.156 169.244l-149.333 214.044-35.556 50.489 36.978 49.778 113.778 151.467c-24.178 29.867-56.889 69.689-91.022 108.8-124.444-76.8-201.956-213.333-201.956-362.667 0-163.556 91.733-309.333 233.956-381.156zM702.578 66.133c140.089 70.4 236.089 214.756 236.089 381.867 0 162.844-91.733 304.356-226.133 376.889 27.733-40.533 47.644-70.4 49.778-73.244l36.267-54.756-43.378-49.067-135.111-154.311 167.111-238.933-17.067-42.667c-1.422-4.978-27.022-69.689-67.556-145.778z" />
<glyph unicode="&#xe906;" d="M529.778 960c3.556 0 7.822 0 11.378-0.711 0 0 0 0 0 0-3.556 0-7.111 0-11.378 0.711z" />
<glyph unicode="&#xe907;" d="M73.956 712.533c6.4 9.956 12.8 20.622 19.911 29.867-7.111-9.244-13.511-19.2-19.911-29.867z" />
<glyph unicode="&#xe908;" d="M61.156 691.2c3.556 7.111 7.822 14.222 12.089 21.333-3.556-7.111-7.822-14.222-12.089-21.333z" />
<glyph unicode="&#xe909;" d="M9.956 548.267c9.956 50.489 27.733 98.844 51.2 142.933-23.467-44.089-41.244-92.444-51.2-142.933z" />
<glyph unicode="&#xe90a;" d="M529.778 960c3.556 0 7.822 0 11.378-0.711-26.311-19.2-49.778-41.244-69.689-66.133-96-7.111-181.333-42.667-248.889-98.133-2.844-2.133-5.689-4.267-7.822-7.111-2.133-1.422-4.267-3.556-6.4-5.689-2.844-2.844-5.689-4.978-8.533-7.822-83.911-80.356-135.111-194.844-135.111-325.689 0-50.489 7.822-98.844 22.044-143.644-16.356-16.356-32.711-32.711-49.067-49.067-8.533 20.622-15.644 41.956-21.333 64-10.667 41.244-16.356 84.622-16.356 129.422 0 17.778 0.711 34.844 2.844 51.911 0 3.556 0.711 7.822 1.422 11.378 1.422 8.533 2.133 17.067 3.556 25.6 0.711 3.556 1.422 7.111 2.133 9.956 2.844 12.8 5.689 24.889 9.244 37.689 9.244 33.422 22.044 66.133 37.689 96.711 1.422 2.844 2.844 5.689 4.267 8.533 4.267 7.111 7.822 14.222 12.089 21.333 6.4 9.956 12.8 20.622 19.911 29.867 4.978 7.111 10.667 14.933 16.356 22.044 4.978 6.4 10.667 12.8 15.644 19.2 5.689 6.4 11.378 12.8 17.778 19.2 91.022 93.867 216.889 153.6 356.267 157.156 3.556 0 7.111 0 11.378 0h3.556c3.556 0 7.111 0 10.667 0 2.133 0 3.556 0 4.978 0z" />
<glyph unicode="&#xe90b;" d="M383.289-49.778c35.556-9.244 71.822-14.933 110.222-16.356-37.689 1.422-74.667 6.4-110.222 15.644v0.711z" />
<glyph unicode="&#xe90c;" d="M950.044 180.622c-6.4-9.956-12.8-20.622-19.911-29.867 7.111 9.244 13.511 19.2 19.911 29.867z" />
<glyph unicode="&#xe90d;" d="M962.133 201.956c-3.556-7.111-7.822-14.222-12.089-21.333 4.267 7.111 7.822 14.222 12.089 21.333z" />
<glyph unicode="&#xe90e;" d="M1014.044 345.6c-9.956-51.2-27.733-98.844-51.911-142.933 24.178 43.378 41.244 91.733 51.911 142.933z" />
<glyph unicode="&#xe90f;" d="M1023.289 444.444c0-17.778-0.711-34.844-2.844-51.911 0-3.556-0.711-7.822-1.422-11.378-0.711-8.533-2.133-17.067-3.556-25.6-0.711-3.556-1.422-7.111-2.133-9.956-0.711-3.556-1.422-7.822-2.133-11.378-1.422-5.689-2.844-11.378-4.267-17.067-0.711-2.844-1.422-6.4-2.844-9.244s-1.422-6.4-2.844-9.244c0-1.422-0.711-2.133-0.711-3.556-0.711-1.422-0.711-2.844-1.422-4.267 0 0 0-0.711 0-0.711 0-0.711 0-0.711-0.711-1.422-0.711-2.133-1.422-4.267-2.133-6.4 0-0.711-0.711-1.422-0.711-2.133-0.711-2.844-2.133-6.4-3.556-9.244 0 0 0-0.711 0-1.422-0.711-1.422-0.711-2.133-1.422-3.556 0 0 0-0.711-0.711-0.711 0-0.711-0.711-1.422-0.711-2.133-0.711-1.422-1.422-3.556-2.133-4.978s-1.422-3.556-2.133-4.978c0 0 0 0 0 0 0-0.711 0-0.711-0.711-1.422 0-0.711-0.711-1.422-0.711-2.133-0.711-1.422-1.422-2.844-1.422-4.267 0-0.711 0-0.711-0.711-1.422v0c-1.422-2.844-2.133-5.689-3.556-8.533v0c0-0.711 0-0.711-0.711-1.422 0 0 0 0 0 0s0 0 0-0.711c-0.711-1.422-1.422-2.844-2.133-4.978 0-0.711-0.711-0.711-0.711-1.422 0 0 0-0.711 0-0.711v0c0-0.711-0.711-1.422-0.711-2.133-0.711-1.422-1.422-2.844-2.133-4.267-0.711-0.711-0.711-1.422-1.422-2.133 0-0.711-0.711-1.422-0.711-2.133 0 0 0-0.711-0.711-0.711 0 0 0 0 0 0-0.711-1.422-1.422-3.556-2.844-4.978-1.422-2.844-2.844-5.689-4.267-8.533-4.267-7.111-7.822-14.222-12.089-21.333-6.4-9.956-12.8-19.911-19.911-29.867-4.978-7.111-10.667-14.933-16.356-22.044-4.978-6.4-10.667-12.8-15.644-19.2-5.689-6.4-11.378-12.8-17.778-19.2-91.022-93.867-216.889-153.6-356.267-157.156-3.556 0-7.111 0-11.378 0h-3.556c-3.556 0-7.111 0-10.667 0-1.422 0-3.556 0-4.978 0-37.689 1.422-74.667 7.111-110.222 16.356-19.911 4.978-39.111 11.378-58.311 19.2 16.356 16.356 32.711 33.422 49.778 49.778 42.667-12.8 89.6-19.911 137.956-19.911 111.644 0 211.2 36.978 288 99.556 2.844 2.133 5.689 4.267 7.822 7.111 2.133 1.422 4.267 3.556 6.4 5.689 2.844 2.133 5.689 4.978 8.533 7.822 73.956 71.111 122.311 168.533 132.978 280.889 24.889 19.2 47.644 41.956 66.844 68.267 0.711-7.822 0.711-15.644 0.711-22.756z" />
<glyph unicode="&#xe910;" d="M940.089 745.956c0 0 0 0 0 0-2.844 2.133-7.111 0.711-9.244-2.133-2.844-4.978-5.689-9.244-9.244-13.511-39.822-40.533-80.356-81.067-120.889-121.6-7.822-7.822-22.756-12.089-37.689-12.089s-29.867 4.267-37.689 12.089c-14.933 14.933-29.156 30.578-44.8 44.089-14.933 12.8-19.2 27.022-19.2 46.222 0 18.489 5.689 32 18.489 44.8 41.244 39.822 81.778 81.067 125.156 123.733 3.556 3.556 2.133 9.244-2.844 10.667-20.622 5.689-39.822 11.378-58.311 16.356-0.711 0-1.422 0-1.422 0h-53.333c-0.711 0-1.422 0-1.422 0-17.067-4.978-34.133-8.533-50.489-13.511-2.844-0.711-5.689-2.133-8.533-2.844-24.889-9.956-47.644-22.756-67.556-39.111-69.689-56.889-103.111-149.333-82.489-242.489 2.844-12.8-0.711-20.622-9.244-29.156-101.689-100.267-203.378-202.667-305.778-304.356-11.378-11.378-23.467-23.467-34.844-34.844-2.844-2.844-4.978-4.978-7.822-7.822-4.267-4.267-7.822-7.822-12.089-12.089 0 0 0 0 0 0-14.933-15.644-28.444-31.289-37.689-50.489 0 0 0-0.711-0.711-0.711-4.978-12.8-7.822-26.311-7.822-39.822-0.711-62.578 54.044-118.044 117.333-118.756 14.933 0 29.867 2.844 44.089 9.244 0 0 0.711 0 0.711 0.711 17.778 9.244 32.711 22.044 46.933 35.556 0 0 0 0 0 0 5.689 5.689 11.378 11.378 17.067 16.356 0 0 0.711 0.711 0.711 0.711 12.089 12.089 24.889 24.889 36.978 37.689 101.689 102.4 204.089 204.089 305.778 306.489 6.4 6.4 12.089 9.956 19.911 9.956 2.133 0 4.267 0 7.111-0.711 19.2-4.267 38.4-6.4 56.889-6.4 22.044 0 44.089 2.844 64.711 8.533 7.111 2.133 13.511 4.267 19.911 6.4 37.689 14.222 71.111 37.689 97.422 68.978 12.8 14.933 23.467 31.289 32.711 49.778 3.556 6.4 6.4 13.511 9.244 20.622 0.711 1.422 1.422 3.556 2.133 4.978 5.689 15.644 10.667 32.711 13.511 50.489 0.711 2.844 2.133 4.978 2.844 7.822 0 0.711 0.711 1.422 0.711 2.844v45.511c0 0.711 0 1.422 0 1.422-5.689 22.044-11.378 44.089-17.067 66.133 0.711 2.133-0.711 3.556-2.133 4.267zM189.867 68.978c-30.578 0-56.889 27.022-56.178 56.889 0 29.867 27.022 56.889 56.889 56.178 29.867 0 56.889-27.022 56.178-56.889 0-29.867-27.022-56.178-56.889-56.178z" />
<glyph unicode="&#xe911;" d="M108.8 207.644c-14.933-15.644-28.444-32-37.689-50.489 7.822 19.911 21.333 37.689 37.689 50.489z" />
<glyph unicode="&#xe912;" d="M271.644 44.089c-12.8-15.644-29.156-27.733-46.933-35.556 17.067 9.244 32.711 22.044 46.933 35.556z" />
<glyph unicode="&#xe913;" glyph-name="policy_imp" d="M16.356 576c-9.244-35.556-14.933-71.822-16.356-110.222 1.422 38.4 7.111 74.667 15.644 110.222h0.711zM247.467 9.956c-9.956 6.4-20.622 12.8-29.867 19.911 9.244-7.111 19.2-13.511 29.867-19.911zM268.8-2.133c-7.111 3.556-14.222 7.822-21.333 12.089 7.111-4.267 14.222-8.533 21.333-12.089zM411.733-54.044c-51.2 9.956-98.844 27.733-142.933 51.911 44.089-24.178 92.444-41.956 142.933-51.911zM754.489 48.356c18.489-13.511 16.356-41.244-3.556-52.622-34.844-18.489-71.822-33.422-110.933-43.378-41.244-10.667-84.622-16.356-128.711-16.356-17.778 0-34.844 0.711-51.911 2.844-3.556 0-7.822 0.711-11.378 1.422-8.533 1.422-17.067 2.133-25.6 3.556-3.556 0.711-7.111 1.422-9.956 2.133-50.489 9.956-98.844 27.733-142.933 51.911-7.111 4.267-14.222 7.822-21.333 12.089-9.956 6.4-20.622 12.8-29.867 19.911-7.111 4.978-14.933 10.667-22.044 16.356-6.4 4.978-12.8 10.667-19.2 15.644-6.4 5.689-12.8 11.378-19.2 17.778-94.578 90.311-154.311 216.178-157.867 356.267 0 3.556 0 7.111 0 11.378v3.556c0 3.556 0 7.111 0 10.667 0 1.422 0 3.556 0 4.978 1.422 37.689 7.111 73.956 16.356 109.511 9.956 39.111 24.889 76.089 43.378 110.933 10.667 19.911 39.111 22.044 52.622 3.556v0c7.111-9.244 7.822-22.044 2.844-32-32-61.867-49.067-133.689-49.067-211.2 0-111.644 36.978-211.2 99.556-288 2.133-2.844 4.267-5.689 7.111-7.822 1.422-2.133 3.556-4.267 5.689-6.4 2.133-2.844 4.978-5.689 7.822-8.533 80.356-83.911 194.844-135.111 326.4-135.111 77.511 0 149.333 17.778 211.2 49.067 8.533 5.689 21.333 4.978 30.578-2.133v0zM157.156 78.933c-94.578 90.311-154.311 216.889-157.156 356.978 3.556-140.089 63.289-265.956 157.156-356.978zM195.556 45.511c-6.4 4.978-12.8 9.956-19.2 15.644 6.4-4.978 12.8-9.956 19.2-15.644zM640-46.933v-0.711c-40.533-10.667-83.2-15.644-127.289-15.644-18.489 0-36.267 0.711-54.044 2.844 17.067-1.422 34.133-2.844 51.911-2.844 44.8-0.711 88.178 4.978 129.422 16.356zM768 448c0-147.2-124.444-265.956-274.489-255.289-126.578 8.533-228.267 110.933-237.511 237.511-9.956 149.333 108.8 273.778 256 273.778 60.444 0 115.911-21.333 160-56.178l-179.911-179.911 40.533-40.533 179.911 179.911c34.133-43.378 55.467-98.844 55.467-159.289zM384 800c0-53.019-42.981-96-96-96s-96 42.981-96 96c0 53.019 42.981 96 96 96s96-42.981 96-96zM640 864c0-53.019-42.981-96-96-96s-96 42.981-96 96c0 53.019 42.981 96 96 96s96-42.981 96-96zM928 768c0-53.019-42.981-96-96-96s-96 42.981-96 96c0 53.019 42.981 96 96 96s96-42.981 96-96zM1024 477.867c0-53.019-42.981-96-96-96s-96 42.981-96 96c0 53.019 42.981 96 96 96s96-42.981 96-96zM960 224c0-53.019-42.981-96-96-96s-96 42.981-96 96c0 53.019 42.981 96 96 96s96-42.981 96-96z" />
<glyph unicode="&#xe914;" d="M20.039 306.724c1.336-4.676 113.555 279.88 267.189 336.658 205.067 75.481 290.568-382.080 453.553-307.267 137.602 63.457 235.794 327.974 233.79 331.982-113.555 238.466-392.767 353.357-643.924 258.505s-383.416-366.048-310.607-619.877z" />
<glyph unicode="&#xe915;" glyph-name="addwidget" d="M4.676 403.58c0 29.391 0 59.449 0 88.84 2.672 15.363 4.676 30.059 7.348 45.422 50.766 268.524 295.911 448.209 566.44 413.474 199.055-25.383 368.052-171.001 422.158-365.38 8.684-30.727 12.691-62.789 19.371-94.184 0-29.391 0-59.449 0-88.84-2.004-11.356-4.008-22.711-6.012-34.067-31.395-205.067-187.032-371.392-389.427-416.814-22.711-4.676-45.422-8.684-68.133-12.691-29.391 0-59.449 0-88.84 0-4.008 1.336-8.016 2.672-12.023 3.34-201.727 20.707-376.736 168.329-431.509 364.712-8.684 31.395-13.359 64.125-19.371 96.188zM451.549 392.224c0-8.016 0-13.359 0-18.703 0-42.082 0-84.832 0-126.915 0-37.406 12.691-49.43 48.762-50.098 6.012 0 12.691 0 18.703 0 35.402 0 48.762 13.359 48.762 48.762 0 42.75 0 85.5 0 128.25 0 5.344 0.668 11.356 0.668 17.367 9.352 0 16.699 0 24.047 0 42.082 0 84.832 0 126.915 0 28.723 0 42.75 14.695 43.418 42.75 0 10.688 0 21.375 0 31.395-0.668 26.051-15.363 41.414-41.414 41.414-32.731 0-65.461 0-98.192 0-18.035 0-35.402 0-54.774 0 0 7.348 0 13.359 0 18.703 0 44.086 0 87.504 0 131.59 0 30.059-15.363 44.754-44.754 45.422-9.352 0-19.371 0-28.723 0-28.055-0.668-42.75-16.031-42.75-43.418 0-44.754 0-90.176 0-134.93 0-5.344 0-11.356 0-17.367-52.77 0-102.868 0-153.633 0-25.383 0-40.746-14.027-42.082-39.41-0.668-12.691-0.668-25.383 0-38.074 1.336-24.047 16.031-38.074 40.078-38.742 18.035-0.668 36.070 0 54.106 0 32.063 2.004 65.461 2.004 100.864 2.004z" />
<glyph unicode="&#xe916;" glyph-name="BGPd" d="M151.467 809.956c192.711 199.111 526.222 197.689 723.911-1.422 188.444-189.867 200.533-512 6.4-714.667-201.244-210.489-536.889-204.089-733.156-6.4-192.711 194.133-201.956 525.511 2.844 722.489zM235.378 171.378c21.333-21.333 33.422-22.044 56.889-4.978 8.533 6.4 17.067 12.8 25.6 19.2 36.267 28.444 36.267 28.444 69.689-3.556 0.711-0.711 2.133-2.133 2.844-2.844 16.356-14.933 32-11.378 33.422 9.956 4.267 53.333 5.689 106.667 6.4 160 0 5.689-9.244 17.067-14.222 17.067-56.178-1.422-111.644-2.844-167.822-7.111-16.356-1.422-19.2-17.067-7.822-29.867 7.822-9.244 15.644-18.489 24.889-25.6 12.089-9.956 9.956-17.778 0.711-27.733-12.089-13.511-22.756-27.733-34.844-41.244-23.467-27.022-19.2-36.978 4.267-63.289zM668.444 681.956c-12.089 12.089-22.044 23.467-34.133 33.422-5.689 4.978-15.644 10.667-21.333 8.533-5.689-1.422-12.8-12.089-13.511-18.489-2.844-52.622-4.978-105.244-5.689-157.867 0-6.4 10.667-17.778 16.356-17.778 62.578 0.711 125.156 2.844 187.022 7.822 7.111 0.711 8.533 4.978 3.556 9.956-14.933 14.933-29.156 32.711-45.511 46.933-8.533 7.822-7.111 13.511-0.711 22.044 15.644 19.2 29.156 39.822 44.8 59.022 9.956 12.8 8.533 24.889-0.711 36.267-7.111 8.533-14.933 17.067-24.178 23.467-12.8 9.244-25.6 11.378-39.822-0.711-20.622-17.067-43.378-34.133-66.133-52.622zM589.511 354.844c-11.378-12.089-12.089-30.578-1.422-43.378 7.822-9.244 14.222-19.2 21.333-28.444 30.578-39.111 30.578-39.111-3.556-76.089-15.644-16.356-12.089-31.289 9.956-32.711 53.333-4.267 105.956-5.689 159.289-7.111 6.4 0 17.778 10.667 17.778 16.356-0.711 55.467-2.844 110.222-7.111 165.689-1.422 16.356-16.356 19.911-29.156 9.244-8.533-7.822-17.067-14.933-24.178-23.467-9.956-12.089-18.489-13.511-31.289-2.133-13.511 12.8-28.444 24.178-43.378 35.556-28.444 21.333-39.111 17.778-68.267-13.511zM428.089 535.467c21.333 21.333 22.044 34.133 3.556 58.311-4.978 6.4-9.956 12.8-14.933 18.489-34.133 39.822-34.133 39.822 0.711 76.8 0.711 0.711 0.711 0.711 1.422 1.422 14.222 15.644 10.667 30.578-9.956 32-54.044 4.267-107.378 5.689-161.422 6.4-5.689 0-17.067-9.956-16.356-14.933 0.711-55.467 2.844-110.222 6.4-165.689 1.422-17.778 17.067-21.333 30.578-9.244 9.244 8.533 18.489 17.067 27.022 26.311 7.822 8.533 14.222 9.244 23.467 1.422 15.644-13.511 32.711-25.6 49.067-37.689 24.889-17.778 38.4-16.356 60.444 6.4z" />
<glyph unicode="&#xe917;" glyph-name="cfg" d="M1018.656 471.713c0-16.699 0-33.399 0-50.766-0.668-4.008-2.004-8.016-2.004-11.356-2.672-32.063-18.703-47.426-51.434-47.426-3.34 0-6.68 0-10.020 0-28.055-0.668-50.098-16.031-59.449-42.082-7.348-18.703-14.695-37.406-22.711-55.442-10.688-24.715-7.348-48.094 10.020-68.801 4.676-5.344 10.020-10.020 14.695-14.695 17.367-18.035 18.703-40.746 2.004-59.449-20.039-22.043-41.414-42.75-62.789-62.789-16.699-15.363-39.41-14.027-56.778 1.336-4.676 4.008-8.016 8.016-12.691 12.691-22.043 22.043-50.098 25.383-77.485 12.023-15.363-7.348-31.395-14.027-47.426-19.371-23.379-8.684-39.41-24.047-44.086-48.762-2.004-8.684-1.336-18.035-2.004-27.387 0-25.383-12.691-42.082-38.074-45.422-23.379-2.672-46.758-1.336-70.137-2.004-43.418-1.336-63.457 18.035-60.785 61.453 1.336 28.723-15.363 50.098-42.082 60.117-16.031 6.012-32.063 12.023-47.426 19.371-33.399 15.363-58.114 11.356-84.832-14.695-2.672-2.004-4.676-4.676-6.68-6.68-16.699-16.699-39.41-18.703-56.778-2.672-22.043 20.707-44.086 42.082-64.125 64.125-15.363 16.699-14.027 38.742 1.336 56.11 4.676 5.344 10.688 10.020 15.363 16.031 18.035 19.371 22.043 46.090 11.356 70.805-8.016 18.035-16.031 36.738-23.379 55.442-8.016 20.707-22.043 34.735-44.086 39.41-10.688 2.004-22.043 2.004-32.731 2.004-23.379 0.668-41.414 14.695-42.75 38.742-2.672 30.727-2.672 62.121-0.668 94.184 1.336 20.707 19.371 34.735 40.078 34.735 6.68 0 13.359 0 20.039 0 28.055 0.668 49.43 16.699 59.449 42.75 7.348 18.703 14.695 36.738 22.711 54.774 10.688 24.715 6.68 50.766-12.023 71.473-4.676 5.344-10.020 10.020-14.695 14.695-14.695 16.031-16.699 38.742-2.004 54.774 21.375 23.379 43.418 45.422 66.797 66.797 15.363 14.027 37.406 12.023 53.438-1.336 5.344-4.676 10.688-10.688 16.031-15.363 22.043-19.371 46.758-22.711 73.477-11.356 17.367 8.016 35.402 15.363 53.438 22.043 25.383 10.020 41.414 32.063 41.414 58.781 0 6.68 0 13.359 0 20.039 1.336 22.711 16.699 40.078 38.074 41.414 25.383 1.336 50.766 2.004 75.481 0.668 46.090-2.672 55.442-13.359 54.774-60.117 0-28.723 16.699-51.434 42.75-61.453 18.035-6.68 36.070-14.027 53.438-22.043 23.379-10.020 45.422-8.684 66.129 6.68 6.68 5.344 12.691 11.356 18.703 16.699 17.367 16.699 39.41 20.039 57.446 4.008 22.711-20.707 44.754-42.082 65.461-64.793 16.031-18.035 13.359-40.078-3.34-57.446-3.34-3.34-6.012-6.012-9.352-9.352-24.047-24.715-27.387-51.434-12.023-82.16 7.348-14.027 12.691-28.723 17.367-43.418 8.684-24.715 24.047-40.746 50.098-45.422 10.020-2.004 20.707-1.336 30.727-2.004 19.371-0.668 35.402-12.691 40.078-31.395 2.672-8.016 3.34-17.367 4.676-26.719zM253.161 446.998c-1.336-139.606 113.555-256.501 250.489-259.841 146.954-3.34 265.185 112.887 267.189 253.161 2.004 147.622-111.551 263.849-257.169 264.517-144.282 1.336-259.173-112.887-260.509-257.837z" />
<glyph unicode="&#xe918;" glyph-name="collector" d="M192 864c0-53.019-42.981-96-96-96s-96 42.981-96 96c0 53.019 42.981 96 96 96s96-42.981 96-96zM608 864c0-53.019-42.981-96-96-96s-96 42.981-96 96c0 53.019 42.981 96 96 96s96-42.981 96-96zM1024 864c0-53.019-42.981-96-96-96s-96 42.981-96 96c0 53.019 42.981 96 96 96s96-42.981 96-96zM192 448c0-53.019-42.981-96-96-96s-96 42.981-96 96c0 53.019 42.981 96 96 96s96-42.981 96-96zM704 448c0-106.039-85.961-192-192-192s-192 85.961-192 192c0 106.039 85.961 192 192 192s192-85.961 192-192zM1024 448c0-53.019-42.981-96-96-96s-96 42.981-96 96c0 53.019 42.981 96 96 96s96-42.981 96-96zM192 32c0-53.019-42.981-96-96-96s-96 42.981-96 96c0 53.019 42.981 96 96 96s96-42.981 96-96zM608 32c0-53.019-42.981-96-96-96s-96 42.981-96 96c0 53.019 42.981 96 96 96s96-42.981 96-96zM1024 32c0-53.019-42.981-96-96-96s-96 42.981-96 96c0 53.019 42.981 96 96 96s96-42.981 96-96z" />
<glyph unicode="&#xe919;" glyph-name="core" d="M120.178 448c0 76.089 22.044 147.2 59.733 206.933l-86.756 86.756c-59.022-83.2-93.156-184.178-93.156-293.689s34.133-210.489 93.156-293.689l86.756 86.756c-37.689 59.733-59.733 130.844-59.733 206.933zM903.822 448c0-74.667-21.333-145.067-57.6-204.8l86.756-86.756c57.6 82.489 91.022 183.467 91.022 291.556 0 108.8-34.133 209.067-91.022 291.556l-86.756-86.756c36.267-59.733 57.6-129.422 57.6-204.8zM718.933 115.911c-60.444-37.689-130.844-59.733-206.933-59.733-75.378 0-145.067 21.333-204.8 58.311l-86.756-87.467c82.489-57.6 183.467-91.022 291.556-91.022 109.511 0 210.489 34.133 293.689 93.156l-86.756 86.756zM307.2 782.222c59.733 36.978 129.422 57.6 204.8 57.6 76.089 0 147.2-22.044 206.933-59.733l86.756 86.756c-83.2 59.022-184.178 93.156-293.689 93.156-108.089 0-209.067-34.133-291.556-91.022l86.756-86.756zM705.422 446.578c0-106.039-85.961-192-192-192s-192 85.961-192 192c0 106.039 85.961 192 192 192s192-85.961 192-192z" />
<glyph unicode="&#xe91a;" glyph-name="dash" d="M512 859.608c227.325 0 411.608-184.283 411.608-411.608s-184.283-411.608-411.608-411.608c-227.325 0-411.608 184.283-411.608 411.608 0.266 227.217 184.39 411.341 411.582 411.608zM512 960c-282.77 0-512-229.23-512-512s229.23-512 512-512c282.77 0 512 229.23 512 512s-229.23 512-512 512v0zM592.849 448c0-40.955-33.201-74.156-74.156-74.156s-74.156 33.201-74.156 74.156c0 40.955 33.201 74.156 74.156 74.156s74.156-33.201 74.156-74.156zM526.323 502.145l317.908 139.344-282.236-213.501-35.673 74.156zM511.799 822.329h0.067c17.853 0 32.326-14.473 32.326-32.326v-43.57c0-17.853-14.473-32.326-32.326-32.326h-0.067c-17.853 0-32.326 14.473-32.326 32.326v43.57c0 17.853 14.473 32.326 32.326 32.326zM886.061 448v-0.067c0-17.853-14.473-32.326-32.326-32.326h-43.57c-17.853 0-32.326 14.473-32.326 32.326v0.067c0 17.853 14.473 32.326 32.326 32.326h43.57c17.853 0 32.326-14.473 32.326-32.326zM245.693 448v-0.067c0-17.853-14.473-32.326-32.326-32.326h-43.57c-17.853 0-32.326 14.473-32.326 32.326v0.067c0 17.853 14.473 32.326 32.326 32.326h43.57c17.853 0 32.326-14.473 32.326-32.326zM835.293 259.515l-0.034-0.058c-8.986-15.427-28.777-20.649-44.204-11.663l-37.649 21.93c-15.427 8.986-20.649 28.777-11.663 44.204l0.034 0.058c8.986 15.427 28.777 20.649 44.204 11.663l37.649-21.93c15.427-8.986 20.649-28.777 11.663-44.204zM281.92 581.899l-0.034-0.058c-8.986-15.427-28.777-20.649-44.204-11.663l-37.649 21.93c-15.427 8.986-20.649 28.777-11.663 44.204l0.034 0.058c8.986 15.427 28.777 20.649 44.204 11.663l37.649-21.93c15.427-8.986 20.649-28.777 11.663-44.204zM645.754 677.89l-0.058 0.034c-15.427 8.986-20.649 28.777-11.663 44.204l21.93 37.649c8.986 15.427 28.777 20.649 44.204 11.663l0.058-0.034c15.427-8.986 20.649-28.777 11.663-44.204l-21.93-37.649c-8.986-15.427-28.777-20.649-44.204-11.663zM379.037 678.635l-0.058-0.033c-15.472-8.908-35.236-3.586-44.144 11.886l-21.739 37.759c-8.908 15.472-3.586 35.236 11.886 44.144l0.058 0.033c15.472 8.908 35.236 3.586 44.144-11.886l21.739-37.759c8.908-15.472 3.586-35.236-11.886-44.144zM281.851 314.123l0.034-0.058c8.986-15.427 3.764-35.218-11.663-44.204l-37.649-21.93c-15.427-8.986-35.218-3.764-44.204 11.663l-0.034 0.058c-8.986 15.427-3.764 35.218 11.663 44.204l37.649 21.93c15.427 8.986 35.218 3.764 44.204-11.663z" />
<glyph unicode="&#xe91b;" glyph-name="emailing" d="M962.547 82.286c-300.587 0-601.174 0-901.761 0 3.34 9.352 4.676 20.707 10.688 27.387 79.489 82.16 160.313 163.653 240.47 245.813 14.027 14.027 27.387 29.391 42.75 45.422 28.055-28.055 52.77-54.106 78.821-79.489 46.090-46.090 95.52-45.422 141.61 0 32.063 32.063 64.125 64.125 97.524 97.524 97.524-105.539 193.044-209.743 288.564-313.947 4.008-5.344 1.336-15.363 1.336-22.711zM48.762 812.378c9.352 0.668 18.035 1.336 27.387 1.336 285.224 0 570.447 0 855.003 0 5.344 0 10.688 0 16.031 0 13.359-1.336 16.031-8.016 8.016-18.703-3.34-4.008-7.348-8.016-11.356-11.356-137.602-137.602-274.536-275.204-412.138-412.806-24.047-25.383-30.727-25.383-54.774-1.336-138.27 138.27-276.54 275.872-414.142 414.142-6.68 6.68-12.023 14.695-17.367 22.043 0.668 2.004 2.004 4.008 3.34 6.68zM718.069 469.709c10.020 8.016 21.375 16.031 31.395 25.383 82.828 82.828 165.657 165.657 248.485 247.817 5.344 5.344 14.027 8.016 20.707 12.023 2.004-8.016 6.012-15.363 6.012-23.379 0-187.032 0.668-373.396 0-560.428 0-7.348-4.008-15.363-6.68-22.711-6.012 3.34-12.691 5.344-16.699 10.020-92.848 100.864-185.028 200.391-276.54 299.919-1.336 2.004-2.672 4.008-6.68 11.356zM307.935 444.994c-4.008-4.676-6.68-8.016-10.020-11.356-90.176-91.512-180.352-183.692-270.528-275.204-5.344-5.344-13.359-8.684-20.707-13.359-2.004 8.016-6.68 16.699-6.68 24.715 0 182.356 0 363.376 0 544.397 0 8.016 3.34 15.363 5.344 23.379 7.348-3.34 16.031-6.012 21.375-11.356 92.848-92.848 186.364-186.364 281.216-281.216z" />
<glyph unicode="&#xe91c;" glyph-name="error" d="M863.687 296.037c0-16.699 0-32.731 0-49.43-1.336-8.684-2.672-18.035-4.008-26.719-11.356-70.137-41.414-131.59-88.84-183.692-37.406-41.414-81.492-74.145-134.93-92.18-8.684-2.672-18.035-4.676-26.719-7.348-4.676 0-9.352 0-14.695 0 4.008 2.004 8.016 4.008 12.023 6.012 52.77 26.051 89.508 66.797 106.207 123.575 12.691 42.082 12.023 84.832 4.008 128.25-4.008 21.375-10.020 42.082-20.039 60.785-2.672 4.008-6.012 8.016-10.020 13.359-1.336-4.008-2.004-5.344-2.004-6.68 0-25.383-12.691-44.754-30.727-60.785-26.051-24.047-57.446-38.742-90.844-48.094-5.344-1.336-10.688-2.672-18.035-4.008 16.699 22.043 26.719 45.422 34.735 68.801 17.367 50.766 21.375 101.532 3.34 152.297-18.035 52.77-52.77 91.512-105.539 110.883-6.68 2.672-14.695 3.34-22.043 5.344 0-0.668-0.668-1.336-0.668-2.004 1.336-2.004 2.672-4.676 4.008-6.68 4.008-5.344 8.016-10.020 12.023-14.695 25.383-29.391 27.387-60.785 11.356-94.852-10.688-22.043-26.051-40.746-42.75-58.114-30.059-30.727-60.785-60.117-90.844-90.844-10.688-11.356-20.039-24.715-29.391-38.074-20.039-29.391-20.707-61.453-15.363-94.852 9.352-61.453 38.742-109.547 90.844-143.614 2.672-1.336 4.676-3.34 6.68-5.344-4.008 0-8.684 0-12.691 0-3.34 0.668-7.348 2.004-10.688 2.672-40.078 8.684-73.477 28.723-104.204 54.774-51.434 44.086-88.84 96.856-106.875 162.985-3.34 11.356-4.676 22.711-7.348 34.067 0 14.027 0 27.387 0 41.414 0.668 2.004 1.336 3.34 1.336 5.344 2.672 24.047 8.684 46.090 17.367 68.801 14.695 38.074 36.738 72.141 58.114 106.875 12.691 18.035 24.047 38.074 33.399 58.114 4.676 10.020 6.012 22.043 4.676 33.399-1.336 23.379-16.031 39.41-36.070 50.766-10.688 6.012-22.711 10.020-34.735 14.027-5.344 2.004-6.68 4.008-4.008 8.684 4.008 6.012 7.348 12.023 12.691 16.031 37.406 32.063 100.864 36.070 142.278 8.684 6.012-4.008 12.023-8.684 18.703-12.023 4.676-2.672 10.020-4.676 14.695-6.68-1.336 5.344-4.008 9.352-6.012 12.691-27.387 46.090-40.746 96.188-42.75 149.626-0.668 24.047 0.668 48.094 8.684 70.805 24.715 68.133 74.145 110.215 140.942 133.594 48.094 16.699 94.184 8.016 135.598-20.707 8.016-5.344 14.695-12.691 21.375-19.371-12.691-2.004-23.379-2.672-34.735-3.34-21.375-2.004-40.078-9.352-52.77-27.387-13.359-19.371-16.699-42.082-14.027-64.793 2.672-23.379 16.031-42.75 30.059-60.785 28.723-36.070 58.114-71.473 87.504-106.875 44.754-52.77 88.84-105.539 126.247-163.653 29.391-46.090 54.774-94.852 67.465-148.958 4.008-13.359 6.012-26.719 8.016-40.078z" />
<glyph unicode="&#xe91d;" glyph-name="events" d="M512-64c-38.4 0-96 46.933-96 105.244h192.711c-0.711-58.311-58.311-105.244-96.711-105.244zM48.356 67.556v105.244c0 0 140.089 17.778 140.089 148.622v222.578c0 147.911 100.267 271.644 236.089 308.622v24.178c0 46.222 36.978 83.2 83.2 83.2h8.533c46.222 0 83.2-36.978 83.2-83.2v-24.178c135.822-36.267 236.089-160.711 236.089-308.622v-223.289c0-131.556 140.089-148.622 140.089-148.622v-105.244h-927.289z" />
<glyph unicode="&#xe91e;" glyph-name="explorer" d="M1024 448l-319.289 128v-92.444h-336.356c-4.267 20.622-11.378 39.822-21.333 57.6l416 232.533 44.8-81.067 216.178 267.378-341.333-43.378 44.8-81.067-429.511-239.644c-31.289 23.467-70.4 37.689-112.356 37.689-102.4 0-185.6-83.2-185.6-185.6s83.2-185.6 185.6-185.6c41.956 0 81.067 14.222 112.356 37.689l429.511-239.644-44.8-81.067 341.333-43.378-216.178 267.378-44.8-81.067-416.711 232.533c9.956 17.778 17.778 36.978 21.333 57.6h337.067v-92.444l319.289 128z" />
<glyph unicode="&#xe91f;" glyph-name="export" d="M1024 911.238c0-290.568 0-581.135 0-872.371-13.359-13.359-26.719-26.719-40.078-40.078-313.279 0-626.557 0-940.504 0-20.707 10.020-34.735 26.719-44.086 48.094 0.668 285.892 0.668 571.115 0.668 856.339 14.027 42.75 44.086 56.778 88.84 56.778 283.888-1.336 567.108-1.336 850.995 0 39.41 0 68.133-11.356 84.164-48.762zM319.29 508.451c-84.832 0-167.661 0-251.157 0 0-64.793 0-128.918 0-193.044 84.832 0 167.661 0 251.157 0 0 64.125 0 127.583 0 193.044zM387.423 315.408c84.832 0 168.329 0 251.157 0 0 65.461 0 128.918 0 192.376-84.164 0-167.661 0-251.157 0 0-64.793 0-128.25 0-192.376zM707.382 315.408c84.832 0 168.329 0 251.157 0 0 65.461 0 128.918 0 192.376-84.164 0-167.661 0-251.157 0 0-64.793 0-128.25 0-192.376zM319.29 764.284c-84.832 0-167.661 0-251.825 0 0-62.789 0-124.911 0-187.7 84.832 0 168.329 0 251.825 0 0 62.789 0 124.243 0 187.7zM388.091 764.952c0-64.125 0-126.247 0-188.368 84.832 0 167.661 0 251.157 0 0 63.457 0 125.579 0 188.368-84.832 0-166.993 0-251.157 0zM707.382 576.584c84.832 0 168.329 0 251.825 0 0 63.457 0 124.911 0 187.032-84.832 0-168.329 0-251.825 0 0-62.789 0-124.911 0-187.032zM67.465 252.618c0-64.125 0-126.247 0-188.368 84.832 0 167.661 0 251.157 0 0 63.457 0 125.579 0 188.368-84.164 0-166.325 0-251.157 0zM639.249 251.95c-84.832 0-167.661 0-251.825 0 0-63.457 0-125.579 0-187.032 84.832 0 168.329 0 251.825 0 0 62.789 0 124.243 0 187.032zM959.875 251.282c-85.5 0-168.997 0-252.493 0 0-63.457 0-124.911 0-187.032 84.832 0 168.329 0 252.493 0 0 63.457 0 124.243 0 187.032z" />
<glyph unicode="&#xe920;" glyph-name="failover" d="M1004.629 269.986c0-78.821 0-157.641 0-236.462-15.363-22.711-38.742-33.399-63.457-42.082-79.489-28.723-162.985-38.074-246.481-46.090-27.387-2.672-54.774-4.676-82.16-7.348-66.797 0-134.262 0-201.059 0-40.078 3.34-80.825 6.68-120.903 10.688-70.805 8.016-140.942 17.367-208.407 42.082-24.715 8.684-48.094 19.371-62.789 42.082 0 78.821 0 157.641 0 236.462 18.703-22.043 43.418-35.402 71.473-42.75 38.074-10.020 75.481-20.707 114.223-27.387 25.383-4.676 45.422-12.023 63.457-32.063 36.070-39.41 74.813-76.817 112.887-113.555 34.067-33.399 70.805-29.391 98.192 10.020 22.043 32.063 44.754 64.793 66.129 97.524 7.348 12.023 16.031 16.031 30.059 16.031 100.864 1.336 200.391 10.020 298.583 32.063 47.426 12.023 95.52 22.043 130.254 60.785zM1004.629 813.714c0-78.821 0-157.641 0-236.462-13.359-10.688-25.383-25.383-40.746-31.395-37.406-14.027-76.817-24.715-115.559-35.402-22.711-6.012-46.090-8.016-74.145-12.691 24.715 36.738 46.758 68.801 68.133 100.864 15.363 23.379 12.023 41.414-10.688 57.446-16.699 12.023-34.067 23.379-50.766 34.735-28.723 19.371-46.758 16.031-66.797-12.691-40.746-60.117-82.16-120.235-122.239-181.020-6.68-10.688-14.027-15.363-27.387-14.695-92.18 3.34-183.692 4.676-275.204 11.356-70.137 5.344-139.606 17.367-206.403 41.414-24.715 8.684-48.094 19.371-63.457 42.082 0 78.821 0 157.641 0 236.462 18.703-22.043 42.75-34.067 69.469-42.75 15.363-5.344 31.395-10.020 47.426-14.027 108.211-26.051 219.095-34.067 329.978-36.070 136.934-2.004 273.868 3.34 408.13 32.731 47.426 11.356 95.52 21.375 130.254 60.117zM19.371 845.777c0 6.012 0 12.023 0 17.367 14.027 11.356 26.719 24.715 42.082 32.731 16.031 8.684 34.735 14.695 52.77 19.371 110.883 31.395 224.438 42.082 338.661 42.75 95.52 0 190.372-4.676 285.892-11.356 68.801-4.676 137.602-17.367 203.063-41.414 24.715-8.684 48.094-20.039 63.457-42.082 0-6.012 0-12.023 0-17.367-12.691-10.688-24.715-23.379-39.41-31.395-18.035-9.352-38.074-16.031-57.446-21.375-112.219-30.727-227.11-40.746-342.001-41.414-92.848-0.668-185.696 4.008-278.544 10.688-69.469 5.344-138.938 17.367-205.067 41.414-24.715 8.684-48.094 19.371-63.457 42.082zM19.371 541.85c34.735-38.742 82.828-48.762 130.254-59.449 126.915-28.723 255.833-34.067 385.419-33.399 6.012 0 12.691 0 23.379 0-48.762-72.141-96.188-141.61-146.286-215.755-11.356 12.691-20.707 24.047-30.727 34.067-34.067 35.402-68.801 69.469-103.536 104.204-21.375 21.375-40.746 21.375-62.789 0-14.695-14.695-29.391-28.723-43.418-43.418-21.375-21.375-21.375-41.414 0-62.789 8.684-9.352 18.703-18.035 25.383-30.727-19.371 4.008-39.41 6.68-58.781 12.023-27.387 8.016-54.774 16.699-80.825 28.723-14.027 6.68-25.383 20.039-38.074 30.059 0 78.821 0 157.641 0 236.462zM1004.629 305.388c-15.363-22.711-38.742-33.399-63.457-42.082-68.133-24.715-139.606-34.735-211.747-42.082-42.75-4.676-85.5-6.012-128.25-9.352-6.012-0.668-12.691 0-21.375 0 14.695 21.375 27.387 41.414 40.746 61.453 38.742 57.446 78.153 114.223 116.227 172.337 8.684 12.691 18.703 16.699 32.731 19.371 55.442 10.688 110.215 22.043 164.989 35.402 26.719 6.68 50.766 20.707 69.469 42.082 0.668-79.489 0.668-158.309 0.668-237.13z" />
<glyph unicode="&#xe921;" glyph-name="filter" d="M413.474 112.344c-11.356 11.356-10.020 20.707-10.020 37.406-1.336 114.891-1.336 229.782-0.668 344.673 0 22.043-5.344 36.738-23.379 51.434-90.176 73.477-179.684 149.626-268.524 225.774-9.352 8.016-15.363 12.023-16.031 24.715-2.004 36.070-1.336 85.5-1.336 122.239 0 28.055 5.344 34.735 35.402 34.735 127.583 0 254.497-0.668 382.080-0.668 126.247 0 266.521 0.668 395.439 0.668 28.723 0 24.047-6.68 24.047-37.406 0-144.95 6.68-134.93-32.063-160.981-70.137-46.758-191.040-157.641-257.169-211.079-16.031-12.691-21.375-26.051-21.375-46.090 0.668-170.333 0.668-341.333 0-511.666 0-14.695-0.668-23.379-0.668-43.418z" />
<glyph unicode="&#xe922;" glyph-name="frontend" d="M810.667 832c46.933 0 85.333-38.4 85.333-85.333v-341.333c0-46.933-38.4-85.333-85.333-85.333h-597.333c-46.933 0-85.333 38.4-85.333 85.333v341.333c0 46.933 38.4 85.333 85.333 85.333h597.333zM810.667 960h-597.333c-117.333 0-213.333-96-213.333-213.333v-341.333c0-117.333 96-213.333 213.333-213.333h597.333c117.333 0 213.333 96 213.333 213.333v341.333c0 117.333-96 213.333-213.333 213.333v0zM960 0h-896c-34.844 0-64 29.156-64 64v0c0 34.844 28.444 64 64 64h896c34.844 0 64-28.444 64-64v0c0-34.844-29.156-64-64-64z" />
<glyph unicode="&#xe923;" glyph-name="global" d="M1017.6 482.133c0-23.467 0-46.222 0-69.689-0.711-2.133-1.422-4.978-2.133-7.111-4.978-65.422-22.044-128-52.622-185.6-78.222-146.489-198.4-236.8-361.956-268.089-17.067-3.556-34.844-4.978-52.622-7.822-23.467 0-46.222 0-69.689 0-15.644 2.133-31.289 3.556-46.933 6.4-96.711 16.356-182.044 56.889-254.578 122.311-86.044 76.8-139.378 172.8-160 287.289-2.844 17.067-4.978 34.844-7.822 51.911 0 23.467 0 46.222 0 69.689 0.711 2.133 1.422 4.978 2.133 7.111 2.844 35.556 9.244 69.689 19.911 103.111 71.111 233.244 300.8 388.267 551.822 353.422 101.689-13.511 190.578-55.467 267.378-124.444 86.044-77.511 140.089-173.511 160-288 2.133-15.644 4.267-33.422 7.111-50.489zM312.178 226.844c59.733 0 118.756 0 177.778 0 0 66.133 0 130.844 0 196.267-69.689 0-138.667 0-208.356 0 2.133-67.556 11.378-132.978 30.578-196.267zM489.244 470.756c0 66.133 0 131.556 0 196.978-59.733 0-118.044 0-176.356 0-15.644-41.956-35.556-169.244-29.867-196.978 68.267 0 137.244 0 206.222 0zM536.889 226.844c2.133 0 2.844-0.711 3.556-0.711 51.911 0 103.822 0 155.733 0 5.689 0 7.822 2.844 9.244 7.822 14.222 49.067 22.044 99.556 27.022 150.044 1.422 12.8 1.422 26.311 2.133 39.822-66.133 0-131.556 0-197.689 0 0-66.133 0-131.556 0-196.978zM734.578 470.756c-2.133 66.133-12.089 129.422-29.156 192-1.422 5.689-4.978 5.689-9.244 5.689-50.489 0-101.689 0-152.178 0-2.133 0-4.267-0.711-6.4-0.711 0-66.133 0-131.556 0-196.978 65.422 0 130.844 0 196.978 0zM969.956 470.756c-0.711 58.311-24.178 144.356-53.333 192-1.422 2.844-6.4 4.978-9.956 4.978-44.089 0-87.467 0-131.556 0-7.822 0-15.644 0-24.178 0 17.778-65.422 27.022-130.844 29.156-196.978 63.289 0 126.578 0 189.867 0zM969.956 423.111c-64 0-127.289 0-190.578 0-1.422-66.844-11.378-131.556-28.444-195.556 2.844-0.711 3.556-0.711 4.267-0.711 51.2 0 101.689 0 152.889 0 2.844 0 7.111 2.844 8.533 5.689 6.4 12.8 12.8 24.889 18.489 38.4 20.622 47.644 32.711 98.844 34.844 152.178zM236.089 470.756c2.133 67.556 12.089 132.267 29.156 197.689-49.067 0-96 0-143.644 0-7.111 0-9.956-2.844-13.511-8.533-21.333-40.533-36.267-82.489-44.8-127.289-3.556-20.622-5.689-41.244-8.533-62.578 61.867 0.711 120.889 0.711 181.333 0.711zM265.244 226.133c-17.778 65.422-27.022 130.844-29.156 196.978-60.444 0-119.467 0-178.489 0-0.711-0.711-0.711-1.422-0.711-2.133 3.556-66.133 21.333-128.711 51.911-187.733 2.844-5.689 6.4-7.822 12.8-7.822 38.4 0 76.8 0 115.2 0 9.244 0.711 18.489 0.711 28.444 0.711zM489.244 904.533c-18.489-2.133-36.267-4.267-54.044-7.111-4.267-0.711-8.533-3.556-11.378-7.111-34.133-44.089-61.867-92.444-83.2-143.644-4.267-10.667-8.533-22.044-13.511-33.422 54.756 0 108.089 0 162.133 0 0 64 0 126.578 0 191.289zM489.244-10.667c0 64.711 0 128 0 191.289-54.044 0-108.089 0-162.133 0 24.178-65.422 56.178-125.867 98.844-180.622 1.422-1.422 4.267-2.844 6.4-3.556 19.2-2.133 37.689-4.267 56.889-7.111zM536.889 181.333c0-64 0-127.289 0-191.289 12.8 1.422 24.178 2.133 36.267 3.556 7.822 0.711 14.222 3.556 19.2 10.667 39.111 51.911 69.689 107.378 92.444 167.822 1.422 2.844 2.133 5.689 2.844 9.244-50.489 0-100.267 0-150.756 0zM687.644 713.244c0 1.422-0.711 2.844-0.711 4.267-23.467 64-56.178 123.022-98.133 177.067-1.422 1.422-3.556 3.556-5.689 4.267-14.933 2.133-30.578 3.556-46.222 5.689 0-64.711 0-127.289 0-190.578 50.489-0.711 100.267-0.711 150.756-0.711zM883.911 712.533c-39.111 66.844-164.978 158.578-228.978 167.822 0-0.711 0.711-2.133 0.711-2.844 32.711-49.778 58.311-103.111 78.222-159.289 2.133-5.689 5.689-5.689 10.667-5.689 40.533 0 81.067 0 120.889 0 5.689 0 11.378 0 18.489 0zM655.644 13.511c94.578 31.289 170.667 86.756 229.689 167.822-50.489 0-99.556 0-148.622 0-20.622-59.733-47.644-115.2-81.067-167.822zM141.511 181.333c43.378-67.556 172.8-164.267 214.756-162.133 0 0.711-0.711 2.133-0.711 2.844-30.578 48.356-55.467 99.556-74.667 153.6-2.133 4.978-4.978 5.689-9.244 5.689-24.889 0-49.778 0-74.667 0-17.778 0-35.556 0-55.467 0zM141.511 712.533c44.8 0 86.044 0 128 0 7.822 0 11.378 2.133 13.511 9.244 17.778 51.2 41.244 99.556 69.689 145.067 1.422 2.133 2.844 4.978 4.267 7.111-88.889-30.578-159.289-83.911-215.467-161.422zM548.978-64h-71.111c-4.978 0.711-9.956 1.422-14.933 2.133-10.667 1.422-21.333 2.844-32 4.267-98.844 17.067-185.6 58.311-258.133 123.733-87.467 79.644-142.222 177.778-162.133 292.267-2.133 12.089-3.556 24.178-5.689 36.267-0.711 5.689-1.422 11.378-2.133 16.356v71.822c0 0.711 0.711 1.422 0.711 2.844 0.711 1.422 0.711 2.844 0.711 3.556 2.844 34.133 9.244 69.689 19.911 104.533 73.956 242.489 308.622 393.244 558.933 359.111 102.4-14.222 193.422-56.178 270.933-125.867 87.467-78.933 141.511-177.067 162.133-291.556 2.133-12.089 3.556-24.178 5.689-36.267 0.711-5.689 1.422-11.378 2.133-16.356v-71.822c0-0.711-0.711-1.422-0.711-2.844-0.711-1.422-0.711-2.844-0.711-3.556-4.978-67.556-23.467-130.844-53.333-188.444-78.933-148.622-201.956-240.356-366.933-271.644-12.089-2.133-24.178-4.267-36.267-5.689-5.689-0.711-11.378-1.422-17.067-2.844v0zM478.578-50.489h68.978c5.689 0.711 10.667 1.422 16.356 2.133 11.378 1.422 23.467 2.844 35.556 5.689 160 30.578 280.178 120.178 357.689 265.244 29.156 55.467 46.933 117.333 51.911 182.756 0 2.133 0.711 4.267 1.422 6.4 0 0.711 0 0.711 0.711 1.422v68.267c-0.711 5.689-1.422 10.667-2.133 16.356-1.422 11.378-3.556 24.178-5.689 35.556-19.911 111.644-73.244 207.644-157.867 283.733-75.378 67.556-163.556 108.8-263.111 122.311-243.911 33.422-472.889-113.778-544-349.156-10.667-34.133-17.067-68.267-19.2-101.689 0-2.133-0.711-4.267-1.422-6.4 0-0.711 0-0.711-0.711-1.422v-68.267c0.711-5.689 1.422-10.667 2.133-16.356 1.422-11.378 3.556-23.467 5.689-35.556 19.911-111.644 73.244-207.644 157.867-283.733 70.4-64 155.022-104.533 251.022-120.889 10.667-2.133 21.333-2.844 32-4.267 3.556-0.711 8.533-1.422 12.8-2.133zM496.356-18.489l-21.333 2.844c-14.933 2.133-29.156 3.556-43.378 5.689-4.267 0.711-8.533 2.844-10.667 5.689-42.667 54.756-75.378 113.778-100.267 182.044l-3.556 9.244h178.489v-205.511zM337.067 174.222c24.178-63.289 54.756-118.756 94.578-169.244 0 0 1.422-0.711 2.133-0.711 14.222-2.133 28.444-4.267 43.378-5.689l6.4-0.711v177.067h-146.489zM530.489-17.067v205.511h167.111l-4.267-12.089c-0.711-2.133-1.422-4.267-2.133-6.4-23.467-61.156-54.756-118.756-93.867-169.956-6.4-8.533-14.222-12.8-24.178-13.511-8.533-0.711-16.356-1.422-24.889-2.133l-17.778-1.422zM544 174.222v-177.067l3.556 0.711c8.533 0.711 17.067 1.422 24.889 2.133 6.4 0.711 10.667 2.844 14.222 7.822 37.689 49.778 68.978 105.956 91.733 166.4 0 0 0 0 0 0h-134.4zM640 0.711l9.956 15.644c33.422 51.911 60.444 108.089 80.356 166.4l1.422 4.267h167.111l-7.822-10.667c-61.156-83.2-137.244-138.667-233.244-169.956l-17.778-5.689zM740.978 174.222c-17.778-51.911-41.956-101.689-69.689-148.622 81.067 29.867 146.489 78.933 200.533 148.622h-130.844zM354.844 12.8c-46.933 0-173.511 95.289-219.022 164.978l-6.4 10.667h86.756c18.489 0 36.978 0 55.467 0 4.267 0 12.089 0 15.644-9.956 18.489-54.044 43.378-105.244 73.956-152.178 0.711-1.422 1.422-2.844 1.422-3.556l2.844-8.533-8.533-0.711c-0.711-0.711-1.422-0.711-2.133-0.711zM154.311 174.933c45.511-61.156 145.067-134.4 189.156-146.489-27.733 45.511-51.2 94.578-68.978 145.778 0 0.711-0.711 1.422-0.711 1.422s-0.711 0-2.133 0c0 0 0 0 0 0-18.489 0-36.978 0-55.467 0l-61.867-0.711zM120.889 219.022c-8.533 0-14.222 3.556-18.489 11.378-31.289 60.444-49.067 123.733-52.622 189.867 0 1.422 0.711 2.844 0.711 4.267l1.422 4.978 4.978 0.711h184.889v-6.4c2.133-68.978 12.089-132.978 29.156-195.556l2.133-8.533h-66.133c-27.733 0-56.889 0-86.044-0.711 0.711 0 0 0 0 0zM64 416.711c4.267-62.578 21.333-123.022 51.2-179.911 1.422-3.556 2.844-3.556 6.4-3.556 29.156 0 57.6 0 86.756 0h48.356c-15.644 59.022-24.178 118.756-27.022 183.467h-165.689zM696.889 219.022c0 0 0 0 0 0-38.4 0-76.089 0-114.489 0h-41.956c-0.711 0-2.133 0-3.556 0.711l-7.111 1.422v209.067h211.2l-0.711-7.111c0-4.267-0.711-8.533-0.711-12.8-0.711-9.244-0.711-18.489-1.422-27.022-4.978-54.756-13.511-103.822-27.022-151.467-0.711-6.4-4.267-12.8-14.222-12.8zM543.289 233.244h39.111c37.689 0 76.089 0 113.778 0 0.711 0 1.422 0 1.422 0s0 0 0 0 0 0.711 0.711 2.844c13.511 46.222 22.044 95.289 26.311 148.622 0.711 8.533 1.422 17.778 1.422 26.311 0 2.133 0 3.556 0 5.689h-182.756v-183.467zM824.178 219.733c-16.356 0-32.711 0-49.067 0h-19.911c-1.422 0-2.133 0-3.556 0.711l-9.244 2.133 2.133 7.111c17.778 66.844 27.022 130.133 28.444 194.133v6.4h204.089v-7.111c-2.133-52.622-14.222-105.244-35.556-155.022-5.689-14.222-12.8-27.733-18.489-39.111-2.844-4.978-9.244-9.244-14.222-9.244-28.444 0-56.889 0-84.622 0zM759.467 233.244h15.644c43.378 0 88.889 0 132.978 0 0.711 0 2.133 1.422 2.844 2.133 5.689 10.667 12.8 24.178 18.489 37.689 19.2 46.222 30.578 94.578 34.133 143.644h-177.067c-2.844-61.156-11.378-120.889-27.022-183.467zM496.356 220.444h-189.156l-1.422 4.978c-18.489 62.578-29.156 128.711-31.289 197.689v7.111h221.867v-209.778zM317.156 233.956h165.689v182.044h-194.844c2.844-63.289 12.089-124.444 29.156-182.044zM242.489 463.644h-194.133l0.711 7.822c0.711 6.4 1.422 13.511 2.133 19.911 1.422 14.222 3.556 28.444 5.689 42.667 8.533 44.089 23.467 87.467 44.8 129.422 2.844 5.689 7.822 12.089 19.2 12.089 35.556 0 71.111 0 108.089 0h44.8l-2.133-8.533c-17.067-64.711-27.022-128.711-29.156-196.267v-7.111zM63.289 477.156h166.4c2.133 62.578 11.378 123.022 27.022 184.178h-27.022c-36.978 0-72.533 0-108.089 0-4.267 0-4.978-0.711-7.111-4.978-21.333-40.533-35.556-82.489-44.089-125.156-2.844-13.511-4.267-27.733-5.689-41.956-0.711-3.556-0.711-7.822-1.422-12.089zM496.356 463.644h-219.022l-1.422 5.689c-5.689 29.156 13.511 157.156 30.578 200.533l1.422 4.267h187.733v-210.489zM288.711 477.156h194.133v183.467h-165.689c-14.222-41.244-30.578-149.333-28.444-183.467zM740.978 463.644h-210.489v209.778l7.822 0.711c1.422 0 3.556 0.711 4.978 0.711h55.467c32 0 64.711 0 96.711 0 4.267 0 12.8 0 15.644-10.667 17.778-63.289 27.022-126.578 29.156-193.422l0.711-7.111zM544 477.156h183.467c-2.844 63.289-12.089 123.022-28.444 183.467 0 0.711 0 0.711 0 0.711s-2.133 0-2.844 0c-32 0-64.711 0-96.711 0h-54.756v-184.178zM976.356 464.356h-203.378v6.4c-2.133 66.133-11.378 130.133-29.156 195.556l-2.133 8.533h59.733c34.844 0 70.4 0 105.244 0 4.978 0 12.8-2.844 15.644-7.822 29.867-48.356 54.044-136.533 54.756-195.556l-0.711-7.111zM785.778 477.156h177.067c-2.133 56.889-24.889 137.244-52.622 182.044-0.711 0.711-2.844 1.422-4.267 1.422-34.844 0-69.689 0-105.244 0h-41.956c16.356-60.444 24.889-120.889 27.022-183.467zM269.511 706.133c-0.711 0-0.711 0 0 0-31.289 0-61.867 0-93.867 0h-47.644l7.822 10.667c58.311 78.933 130.133 132.978 218.311 163.556l16.356 5.689-9.956-17.778c-0.711-2.133-2.133-3.556-2.844-5.689-28.444-45.511-51.911-93.156-68.978-143.644-2.844-8.533-9.244-12.8-19.2-12.8zM208.356 719.644c20.622 0 40.533 0 60.444 0 4.978 0 5.689 0.711 7.111 4.978 16.356 47.644 38.4 93.867 64.711 137.244-73.956-29.156-135.111-76.089-186.311-142.222h20.622c11.378 0 22.756 0 33.422 0zM744.533 706.133c-4.978 0-12.8 0-16.356 10.667-19.2 54.756-45.511 108.089-77.511 157.156-0.711 1.422-1.422 2.844-1.422 3.556l-3.556 9.956 10.667-0.711c66.844-9.244 193.422-102.4 233.956-170.667l5.689-9.956h-59.022c-30.578 0-61.867 0-92.444 0 0 0 0 0 0 0zM668.444 871.111c29.867-46.933 54.044-97.422 71.822-150.044 0-0.711 0.711-1.422 0.711-1.422s2.133 0 3.556 0c30.578 0 61.867 0 92.444 0h34.844c-40.533 59.022-140.8 133.689-203.378 151.467zM496.356 706.844h-179.2l7.822 19.911c2.844 7.822 6.4 14.933 9.244 22.756 22.044 53.333 50.489 101.689 83.911 145.067 3.556 4.978 9.956 8.533 15.644 9.956 12.8 2.133 26.311 3.556 39.822 5.689 4.978 0 9.956 0 14.933 0.711l7.822 0.711v-204.8zM337.067 720.356h145.778v176.356c-2.133 0-4.978-0.711-7.111-0.711-13.511-1.422-26.311-3.556-39.111-4.978-2.133-0.711-5.689-2.133-7.111-4.978-32.711-41.956-60.444-89.6-82.489-142.222-2.844-7.111-6.4-14.933-9.244-22.756l-0.711-0.711zM695.467 706.844h-164.978v204.8l18.489-2.133c12.089-1.422 23.467-2.844 34.844-4.267 3.556-0.711 7.111-2.844 9.956-7.111 41.244-52.622 74.667-113.067 98.844-178.489 0.711-1.422 0.711-2.133 0.711-3.556l2.133-9.244zM544 720.356h135.111c-24.178 62.578-56.178 119.467-96 169.956-1.422 1.422-2.133 2.133-2.133 2.133-10.667 1.422-22.044 2.844-33.422 3.556l-3.556 0.711v-176.356z" />
<glyph unicode="&#xe924;" glyph-name="graphs" d="M1019.992 514.463c0-8.684 0.668-20.707 0.668-30.059-0.668-2.004 0-4.676 0-6.68-1.336-23.379-1.336-46.090-2.672-69.469-5.344-70.137-20.707-137.602-51.434-200.391-72.809-149.626-191.708-237.798-356.697-263.181-19.371-2.672-39.41-4.676-58.781-6.68-12.023 0-23.379 0-35.402 0-16.699 1.336-33.399 2.672-50.098 4.676-106.207 14.027-202.395 52.102-285.224 120.903-88.84 72.809-146.954 164.321-168.997 277.876-3.34 18.035-5.344 36.070-8.016 54.106 0 20.039 0 40.078 0 59.449 1.336 10.688 2.672 21.375 4.008 32.731 13.359 110.883 57.446 209.075 131.59 291.903 103.536 116.227 234.458 173.673 388.759 177.012 16.699 0.668 32.731 0 50.098 0 0-148.29 0-294.575 0-442.197 6.012 0 10.688 0 15.363 0 138.27 0 276.54 0 414.142 0 5.344 0 8.016 0 12.691 0zM488.955 867.152c-4.676 0-8.016 0-12.023 0-24.047-2.004-48.762-2.672-72.141-7.348-124.243-21.375-215.087-88.84-269.192-203.063-45.422-96.188-57.446-198.387-42.082-302.591 19.371-132.258 91.512-225.774 213.083-281.216 54.774-24.715 112.887-37.406 172.337-42.082 68.133-5.344 136.266-2.672 202.395 16.031 94.184 26.719 166.325 81.492 209.075 171.669 28.723 60.117 38.742 124.911 40.746 190.372 0 5.344 0 10.688 0 17.367-148.29 0-294.575 0-442.197 0 0 146.954 0 293.239 0 440.861zM1019.324 602.635c-117.563 0-234.458 0-352.689 0 0 117.563 0 235.126 0 354.693 14.027-2.004 28.723-2.672 42.75-6.012 59.449-13.359 110.215-43.418 156.973-82.16 61.453-50.766 110.883-110.883 138.27-187.032 8.016-22.711 10.020-47.426 14.695-70.805 0.668-2.672 0-5.344 0-8.684z" />
<glyph unicode="&#xe925;" glyph-name="help" d="M508.994 960c-281.216 0-508.994-227.778-508.994-508.994s227.778-508.994 508.994-508.994 508.994 227.778 508.994 508.994c0.668 281.216-227.11 508.994-508.994 508.994zM422.826 884.519c0 18.703 15.363 34.067 34.067 34.067 0 0 102.868 0 102.868 0 18.703 0 34.067-15.363 34.067-34.067v-145.618c0-18.703-15.363-34.067-34.067-34.067h-102.868c-18.703 0-34.067 15.363-34.067 34.067v145.618zM254.497 399.572c0-18.703-15.363-34.067-34.067-34.067h-144.95c-18.703 0-34.067 15.363-34.067 34.067v102.868c0 18.703 15.363 34.067 34.067 34.067h144.95c18.703 0 34.067-15.363 34.067-34.067v-102.868zM594.494 17.492c0-18.703-15.363-34.067-34.067-34.067h-103.536c-18.703 0-34.067 15.363-34.067 34.067v145.618c0 18.703 15.363 34.067 34.067 34.067h102.868c18.703 0 34.067-15.363 34.067-34.067v-145.618zM504.986 217.884c-127.583 0-230.45 103.536-230.45 230.45s103.536 230.45 230.45 230.45 230.45-103.536 230.45-230.45-102.868-230.45-230.45-230.45zM941.84 365.506h-145.618c-18.703 0-34.067 15.363-34.067 34.067v102.868c0 18.703 15.363 34.067 34.067 34.067h145.618c18.703 0 34.067-15.363 34.067-34.067v-102.868c0-18.703-14.695-34.067-34.067-34.067z" />
<glyph unicode="&#xe926;" glyph-name="ignored_pref" d="M0 234.667c0 141.511 0 283.022 0 424.533 2.844 2.844 6.4 4.978 9.244 7.822 93.867 93.867 187.022 187.733 280.889 281.6 6.4 6.4 12.8 9.956 22.756 9.956 133.689 0 267.378 0 401.067 0 8.533 0 14.222-2.133 20.622-8.533 93.156-93.867 187.022-187.733 280.889-280.889 6.4-5.689 8.533-12.089 8.533-20.622 0-134.4 0-268.089 0-402.489 0-8.533-2.133-14.222-8.533-20.622-93.867-93.156-187.733-187.022-280.889-280.889-6.4-6.4-12.089-8.533-20.622-8.533-133.689 0-267.378 0-401.067 0-9.244 0-15.644 2.844-22.756 9.956-93.156 93.867-187.022 187.733-280.889 280.889-2.844 2.844-6.4 4.978-9.244 7.822zM300.089 413.867c0-57.6 0-115.2 0-172.8 0-13.511 0.711-27.022 3.556-40.533 9.244-54.044 49.067-90.311 103.822-91.733 59.733-1.422 120.178-0.711 179.911-0.711 5.689 0 10.667 0.711 16.356 1.422 38.4 7.111 64.711 29.867 82.489 63.289 14.933 28.444 27.733 58.311 41.244 87.467 27.733 60.444 54.756 120.889 82.489 181.333 5.689 12.8 9.244 26.311 4.267 40.533-6.4 19.911-22.044 29.867-41.956 31.289-19.2 1.422-33.422-7.822-41.956-24.889-14.222-27.733-27.022-55.467-41.244-82.489-4.267-7.822-7.111-19.911-19.2-17.778-13.511 2.844-10.667 14.933-10.667 24.178 0 95.289 0 190.578-0.711 285.867 0 9.244-2.844 19.911-7.111 27.733-6.4 12.089-22.756 16.356-36.267 12.8-14.933-4.267-24.889-14.933-25.6-29.867-0.711-34.133-0.711-67.556-0.711-101.689 0-46.933 0-94.578 0-141.511 0-7.822-1.422-14.222-11.378-14.222s-13.511 4.978-12.8 14.222c0 2.844 0 5.689 0 8.533 0 92.444 0 184.889 0 276.622 0 12.8-3.556 23.467-14.933 30.578-12.8 7.822-26.311 8.533-39.822 1.422-14.933-7.111-19.2-20.622-19.2-36.267 0-90.311 0-181.333 0-271.644 0-4.267 1.422-8.533-0.711-12.089s-6.4-8.533-9.244-8.533c-4.267 0-9.244 3.556-12.089 7.111-2.133 2.133-0.711 7.111-0.711 10.667 0 78.933 0 157.156 0 236.089 0 17.778-12.089 32.711-28.444 35.556-19.911 3.556-38.4-4.978-44.089-22.756-2.133-6.4-2.133-13.511-2.133-20.622 0-81.067 0-162.133 0-243.2 0-9.244 0-18.489-12.8-18.489s-11.378 9.244-11.378 17.778c0 47.644 0 95.289 0 142.933 0 3.556 0 7.111 0 11.378-1.422 20.622-14.933 32.711-34.844 32.711-19.2 0-31.289-12.8-32.711-32.711 0-4.267 0-9.244 0-13.511-1.422-61.867-1.422-123.022-1.422-183.467z" />
<glyph unicode="&#xe927;" glyph-name="info" d="M215.087-59.992c-6.012 0-12.023 0-18.035 0-44.086 17.367-53.438 30.727-53.438 79.489 0 39.41-0.668 78.821 0 118.231 0 10.688-3.34 18.703-10.688 26.719-120.235 130.254-161.649 281.884-112.887 452.217 74.145 258.505 354.693 400.115 613.198 313.279 231.118-78.153 365.38-317.286 309.271-549.072-59.449-245.813-307.267-401.451-561.096-351.353-8.016 1.336-18.035 0-25.383-4.008-47.426-28.055-94.184-56.778-140.942-85.5zM265.853 113.012c19.371 12.023 35.402 21.375 51.434 32.731 20.039 13.359 40.746 16.699 63.457 10.020 61.453-17.367 122.907-17.367 184.36-2.672 201.059 47.426 317.954 261.845 246.481 451.549-72.809 193.712-298.583 284.556-488.287 193.712-117.563-56.11-186.364-150.962-199.055-281.216-10.688-111.551 29.391-207.071 112.219-282.552 20.039-18.035 30.059-38.074 29.391-64.793-0.668-17.367 0-35.402 0-56.778zM477.599 507.783c-66.129 0-132.926 0.668-199.055 0-28.723-0.668-42.082 26.051-32.063 44.754 7.348 13.359 18.703 17.367 32.731 17.367 36.738 0 72.809 0 109.547 0 92.18 0 184.36 0 276.54 0 4.008 0 8.016 0 12.023 0 20.707-0.668 34.735-13.359 34.735-30.727s-13.359-30.727-34.067-30.727c-66.797-1.336-133.594-0.668-200.391-0.668zM356.697 386.881c-29.391 0-58.781 0-88.172 0-20.039 0-34.067 12.691-34.067 30.727 0 17.367 14.027 30.059 34.735 30.059 58.114 0 116.227 0 174.341 0 20.707 0 34.735-12.023 34.735-30.059s-14.027-30.727-35.402-30.727c-28.723 0-57.446 0-86.168 0zM628.561 386.881c-20.039 0-39.41 0-59.449 0-18.035 0-31.395 13.359-31.395 30.059s13.359 30.059 31.395 30.059c40.746 0 80.825 0 121.571 0 16.699 0 30.059-13.359 30.727-29.391 0.668-16.699-12.691-30.727-30.727-30.727-20.039 0-41.414 0-62.121 0z" />
<glyph unicode="&#xe928;" glyph-name="unlockdash" d="M0 326.763c0.668 3.34 2.004 6.68 2.672 10.020 8.684 39.41 42.082 66.129 82.16 66.129 130.254 0 260.509 0 391.431 0.668 5.344 0 10.020 0 15.363 0 0 9.352 0 16.699 0 24.715-0.668 49.43-5.344 98.86 8.016 147.622 34.735 126.915 158.309 209.075 289.232 192.376 120.903-15.363 216.423-108.879 229.782-229.114 4.676-44.086 0.668-89.508 0.668-134.93-30.727 0-60.785 0-92.848 0 0 16.031 0.668 32.731 0 48.762-0.668 30.059 2.004 61.453-4.008 90.844-14.027 78.821-88.172 135.598-169.665 133.594-83.496-2.004-154.969-60.785-164.989-141.61-5.344-42.75-0.668-87.504-0.668-131.59 8.684-0.668 19.371-0.668 28.723-2.672 38.074-8.684 64.793-41.414 64.793-80.825 0.668-100.196 0.668-201.059 0-301.255 0-38.074-25.383-68.801-61.453-80.157-2.672-0.668-5.344-2.004-8.016-3.34-179.684 0-360.037 0-539.721 0-4.008 2.004-8.684 3.34-12.691 5.344-26.051 10.020-44.086 28.055-52.77 54.774-2.004 5.344-3.34 10.688-4.676 16.031-1.336 104.204-1.336 209.743-1.336 314.614z" />
<glyph unicode="&#xe929;" glyph-name="lockdash" d="M680.663 332.107c0-107.543 0-215.755 0-323.298-6.012-19.371-12.691-39.41-30.059-51.434-12.691-8.684-26.719-14.695-40.746-21.375-180.352 0-360.037 0-540.389 0-3.34 1.336-6.68 3.34-10.020 4.008-28.723 10.020-47.426 29.391-56.11 58.114-1.336 5.344-2.672 10.688-4.008 16.031 0 104.204 0 208.407 0 313.279 1.336 4.676 2.672 10.020 4.008 14.695 10.688 34.735 35.402 54.106 70.137 62.121 0 6.012 0 11.356 0 17.367 0.668 44.086-4.008 88.84 4.008 130.922 27.387 149.626 163.653 240.47 313.279 213.083 105.539-19.371 193.712-108.879 207.739-215.087 5.344-37.406 2.672-76.149 3.34-114.223 0-10.688 0-21.375 0-32.063 34.735-5.344 58.114-22.711 71.473-53.438 3.34-6.012 5.344-12.691 7.348-18.703zM510.998 404.916c0 35.402 0.668 70.805 0 105.539-3.34 92.848-75.481 164.321-168.329 166.993-86.168 2.672-160.981-58.114-173.005-142.946-4.676-32.063-2.004-64.793-2.672-97.524 0-10.020 0-20.707 0-31.395 114.891-0.668 227.778-0.668 344.005-0.668z" />
<glyph unicode="&#xe92a;" glyph-name="logo" d="M20.039 306.724c1.336-4.676 113.555 279.88 267.189 336.658 205.067 75.481 290.568-382.080 453.553-307.267 137.602 63.457 235.794 327.974 233.79 331.982-113.555 238.466-392.767 353.357-643.924 258.505s-383.416-366.048-310.607-619.877zM1004.629 589.276c-1.336 4.676-113.555-279.88-267.189-336.658-205.067-75.481-290.568 382.080-453.553 307.267-137.602-63.457-235.794-327.974-233.79-331.982 113.555-237.798 392.767-352.689 643.924-257.837 250.489 94.184 383.416 365.38 310.607 619.209z" />
<glyph unicode="&#xe92b;" glyph-name="logout" d="M512.334 960c-283.22 0-512.334-229.114-512.334-512.334 0-282.552 229.114-512.334 512.334-512.334 282.552 0 512.334 229.114 512.334 512.334-0.668 283.22-229.782 512.334-512.334 512.334zM468.916 901.886h85.5v-284.556h-85.5v284.556zM512.334 68.926c-209.075 0-378.74 169.665-378.74 378.74 0 173.005 116.227 318.622 274.536 364.044v-79.489c-116.227-42.75-199.055-153.633-199.055-284.556 0-166.993 135.598-303.259 303.259-303.259 166.993 0 303.259 135.598 303.259 303.259 0 130.922-82.828 241.806-199.055 284.556v79.489c158.309-45.422 274.536-191.040 274.536-364.044 0-209.075-169.665-378.74-378.74-378.74z" />
<glyph unicode="&#xe92c;" glyph-name="notific" d="M972.566 173.798c0-34.735 0-69.469 0-104.204-307.267 0-614.534 0-921.132 0 0 34.735 0 69.469 0 104.204 4.008 1.336 8.684 2.004 12.691 3.34 86.836 21.375 126.247 71.473 126.247 161.649 0 68.801 0 137.602 0 206.403 0.668 135.598 85.5 255.165 214.419 298.583 15.363 5.344 20.707 12.023 20.707 28.723 0 47.426 38.742 84.164 86.168 84.164s86.836-36.738 86.168-84.164c0-16.699 5.344-23.379 20.707-28.723 128.918-43.418 213.751-162.985 214.419-298.583 0-74.145 0-147.622 0-221.766 0.668-60.785 28.723-104.871 83.496-130.922 18.703-8.016 38.074-12.691 56.11-18.703zM494.967-60.66c-34.067 17.367-63.457 39.41-74.813 79.489-2.004 7.348-2.672 15.363-4.008 24.047 64.793 0 127.583 0 191.708 0-3.34-52.77-36.070-81.492-78.153-103.536-5.344-2.004-11.356-2.672-17.367-2.672s-12.023 0.668-17.367 2.672z" />
<glyph unicode="&#xe92d;" glyph-name="outage" d="M1009.778 109.511l-433.778 750.933c-28.444 49.778-99.556 49.778-128 0l-433.778-750.933c-28.444-49.067 7.111-110.933 64-110.933h867.556c56.889 0 92.444 61.156 64 110.933zM676.267 369.778l-178.489-261.689-0.711-2.133c0 0 0 0 0 0-1.422-2.844-4.267-4.267-7.111-4.267-4.978 0-8.533 4.267-8.533 9.956 0 0 0 0.711 0 0.711v1.422c0 0 0 0 0 0l57.6 198.4c0 1.422 0.711 2.844 0.711 4.978 0 0.711 0 0.711 0 1.422 0 16.356-11.378 29.156-25.6 29.156v0h-135.111c-19.911 1.422-35.556 20.622-35.556 43.378 0 5.689 0.711 12.089 2.844 17.067 0 0 0 0 0 0l2.133 4.267 177.778 258.844 0.711 1.422c1.422 2.844 4.267 4.978 7.111 4.978 4.978 0 8.533-4.267 8.533-9.956 0 0 0 0 0 0v-2.133l-57.6-199.822c0-0.711 0-1.422 0-1.422 0-0.711 0-2.133 0-2.844 0-16.356 11.378-29.156 25.6-29.156v0h135.111c19.911-1.422 35.556-20.622 35.556-43.378-0.711-7.111-2.133-13.511-4.978-19.2z" />
<glyph unicode="&#xe92e;" glyph-name="print" d="M4.008 312.068c0 114.891 0 229.782 0 344.005 0.668 1.336 1.336 2.672 1.336 3.34 4.008 20.707 12.691 39.41 25.383 55.442 22.711 28.723 50.098 48.762 86.836 53.438 20.039 2.672 40.746 0.668 61.453 1.336 4.676 0 9.352 0 14.695 0 0-64.125 0-126.915 0-190.372 212.415 0 424.162 0 636.577 0 0 63.457 0 126.915 0 190.372 19.371 0 37.406 0 56.11 0 52.77 0 89.508-26.051 116.227-68.801 8.016-13.359 12.023-30.059 18.035-44.754 0-114.891 0-229.782 0-344.005-0.668-0.668-1.336-2.004-1.336-2.672-3.34-19.371-11.356-37.406-22.711-52.77-22.711-30.059-50.766-51.434-88.84-56.11-20.039-2.672-40.746-1.336-61.453-1.336-5.344 0-10.020 0-16.031 0 0 64.125 0 126.915 0 190.372-212.415 0-424.162 0-636.577 0 0-63.457 0-126.915 0-190.372-19.371 0-37.406 0-56.11 0-52.77 0-90.176 26.051-116.895 69.469-8.016 12.691-11.356 28.723-16.699 43.418zM259.173 324.759c168.997 0 337.326 0 505.654 0 0-105.539 0-210.411 0-315.95-168.329 0-336.658 0-505.654 0 0 104.871 0 210.411 0 315.95zM320.626 134.387c0-18.035 0.668-36.070 0-53.438 0-8.016 2.004-10.688 10.020-10.688 120.903 0 241.138 0 362.040 0 2.004 0 4.008-0.668 5.344 0 2.004 0.668 4.008 2.672 4.008 4.008 0 19.371 0 39.41 0 59.449-126.247 0.668-253.161 0.668-381.412 0.668zM321.294 198.513c127.583 0 254.497 0 381.412 0 0 21.375 0 42.082 0 62.789-127.583 0-254.497 0-381.412 0 0-20.707 0-41.414 0-62.789zM259.173 960c168.997 0 337.326 0 505.654 0 0-105.539 0-210.411 0-315.95-168.329 0-336.658 0-505.654 0 0 104.871 0 209.743 0 315.95z" />
<glyph unicode="&#xe92f;" glyph-name="provider" d="M792.178 96h-560.356c-126.578 0-229.689 107.378-229.689 238.933 0 84.622 41.956 160.711 109.511 203.378 18.489 106.667 111.644 188.444 224 188.444 29.867 0 59.022-5.689 86.756-17.067 52.622 56.889 128 90.311 206.933 90.311 147.911 0 270.222-114.489 281.6-260.267 68.267-42.667 112.356-120.178 112.356-205.511-1.422-130.844-104.533-238.222-231.111-238.222zM236.089 455.111l-39.822-16.356c-39.822-16.356-66.133-58.311-66.133-103.822 0-61.156 45.511-110.933 101.689-110.933h560.356c56.178 0 101.689 49.778 101.689 110.933 0 47.644-27.733 90.311-69.689 105.244l-45.511 16.356 3.556 48.356c0.711 9.956 0.711 15.644 0 22.756-6.4 67.556-54.044 125.867-120.889 140.8s-134.4-16.356-167.111-74.667l-37.689-66.133c0 0-65.422 73.244-127.289 54.756-113.778-32.711-93.156-127.289-93.156-127.289z" />
<glyph unicode="&#xe930;" glyph-name="commit" d="M0 960c20.707 0 42.082 0 64.125 0 0-64.125 0-127.583 0-191.708 21.375 0 42.082 0 63.457 0 0-21.375 0-42.082 0-64.125-20.707 0-41.414 0-62.789 0 0-42.75 0-84.832 0-128.25 20.707 0 41.414 0 62.789 0 0-21.375 0-42.082 0-64.125-20.707 0-41.414 0-62.789 0 0-43.418 0-85.5 0-128.25 20.707 0 41.414 0 62.789 0 0-21.375 0-42.082 0-64.125-20.707 0-41.414 0-62.789 0 0-42.75 0-84.832 0-127.583 20.707 0 41.414 0 62.789 0 0-22.043 0-42.75 0-64.125-20.707 0-41.414 0-62.789 0 0-42.75 0-84.832 0-128.25 319.958 0 639.917 0 959.207 0 0-21.375 0-42.75 0-64.125-341.333 0-682.667 0-1024 0 0 342.001 0 683.335 0 1024.668zM1022.664 722.202c-2.004-10.020-10.020-32.063-20.039-45.422-18.703-26.051-46.758-37.406-78.821-36.738-6.012 0-8.684-1.336-11.356-6.68-34.735-69.469-69.469-138.938-104.204-208.407-2.672-4.676-2.004-8.016 1.336-12.023 46.758-56.778 15.363-142.946-57.446-154.969-61.453-10.688-115.559 37.406-112.887 99.528 0 1.336 1.336 8.684 2.004 10.688 3.34 13.359-0.668 16.031-12.023 24.047-32.731 23.379-64.125 47.426-96.188 71.473-18.035-10.688-28.055-18.035-52.77-16.031-2.004 0-14.695 3.34-16.699 4.008-10.688 4.676-16.031-3.34-24.047-14.695-23.379-32.731-47.426-64.125-71.473-96.188 19.371-31.395 22.043-64.125 5.344-96.856-20.039-39.41-59.449-56.778-96.188-51.434-45.422 6.012-76.149 36.070-83.496 79.489-12.023 66.797 48.762 124.911 114.891 108.879 6.68-1.336 9.352 0 12.691 5.344 24.047 32.731 48.762 64.793 73.477 97.524 4.008 5.344 4.008 8.684 0.668 14.695-17.367 32.731-16.699 66.129 3.34 97.524 20.039 32.063 50.766 46.090 88.172 44.086 57.446-3.34 98.86-60.117 85.5-116.895-1.336-6.012-0.668-8.684 4.008-12.023 33.399-24.715 66.797-50.098 99.528-74.813 4.008-2.672 6.68-3.34 11.356-0.668 16.031 9.352 34.067 13.359 52.77 12.691 3.34 0 8.016 2.672 9.352 5.344 35.402 70.137 70.805 140.274 105.539 210.411 1.336 2.672 0.668 8.016-1.336 10.020-25.383 32.731-30.727 68.801-12.023 105.539s50.766 54.106 92.18 52.102c41.414-2.004 79.489-35.402 86.836-76.817 0.668-2.004 0.668-4.676 1.336-6.68 2.004-9.352 2.004-18.035 0.668-26.051zM927.144 704.167c17.367-0.668 32.063 13.359 32.731 30.727 0.668 18.035-13.359 32.731-31.395 33.399s-32.731-14.027-32.731-31.395c0-18.035 14.695-32.731 31.395-32.731zM512.334 543.186c0.668 17.367-13.359 32.063-30.727 32.731-18.035 0.668-32.731-13.359-33.399-31.395s14.027-32.731 31.395-32.731c17.367 0 32.063 14.027 32.731 31.395zM736.104 320.083c17.367 0 32.063 14.027 32.063 31.395 0 18.035-14.027 32.731-32.063 32.731-17.367 0-32.063-14.027-32.063-31.395 0-18.035 14.695-32.731 32.063-32.731zM287.896 255.958c17.367 0 32.063 14.027 32.063 31.395 0 18.035-14.027 32.731-32.063 32.731-17.367 0-32.063-14.027-32.063-31.395 0-18.035 14.695-32.731 32.063-32.731z" />
<glyph unicode="&#xe931;" glyph-name="direct" d="M138.667 704c78.933 118.044 213.333 192 371.911 192 186.311 0 339.2-101.689 408.178-256h68.267c-76.8 187.733-260.978 320-475.733 320-189.156 0-354.844-103.111-443.022-256h70.4zM918.044 256c-68.978-152.889-221.156-254.578-406.756-254.578-157.867 0-291.556 73.244-370.489 190.578h-71.111c88.178-152.889 253.156-256 441.6-256 214.044 0 398.222 132.978 475.022 320h-68.267zM1024 447.289l-448 320.711v-192h-576v-256h576v-192z" />
<glyph unicode="&#xe932;" glyph-name="indirect" d="M275.911 833.422c67.556 39.822 147.2 62.578 234.667 62.578 256 0 448-192 448-447.289 0-40.533-4.978-79.644-14.222-116.622l54.756-40.533c16.356 49.778 24.889 102.4 24.889 157.156 0 282.311-230.4 511.289-512.711 511.289-128.711 0-246.044-47.644-336.356-126.578h100.978zM738.844 59.733c-66.133-36.978-143.644-58.311-228.267-58.311-255.289 0-446.578 192-446.578 447.289 0 44.8 5.689 86.756 17.067 127.289h-65.422c-9.956-40.533-15.644-83.2-15.644-127.289 0-282.311 228.267-512.711 510.578-512.711 103.822 0 200.533 31.289 280.889 84.622l-52.622 39.111zM1024 192l-192 128v-64h-448c-35.556 0-64 28.444-64 64s28.444 64 64 64c0 0 0 0 0.711 0h255.289c105.956 0 192 86.044 192 192s-86.044 192-192 192h-640v-128h458.667c0 0 0 0 0 0h179.2c34.844 0 64-28.444 64-64 0-34.844-28.444-64-64-64h-179.2c0 0 0 0 0 0h-74.667c-105.956 0-192-86.044-192-192s86.044-192 192-192c2.133 0 3.556 0 5.689 0h442.311v-64l192 128z" />
<glyph unicode="&#xe933;" d="M511.289 960c-282.311 0-511.289-228.978-511.289-511.289s228.267-512.711 510.578-512.711c282.311 0 513.422 230.4 513.422 512.711s-230.4 511.289-512.711 511.289zM510.578 1.422c-255.289 0-446.578 192-446.578 447.289s191.289 447.289 446.578 447.289c256 0 448-192 448-447.289s-192-447.289-448-447.289z" />
<glyph unicode="&#xe934;" d="M512 128v0c-35.556 0-64 28.444-64 64v512c0 35.556 28.444 64 64 64v0c35.556 0 64-28.444 64-64v-512c0-35.556-28.444-64-64-64z" />
<glyph unicode="&#xe935;" d="M192 448v0c0 35.556 28.444 64 64 64h512c35.556 0 64-28.444 64-64v0c0-35.556-28.444-64-64-64h-512c-35.556 0-64 28.444-64 64z" />
<glyph unicode="&#xe936;" d="M511.289 960c-282.311 0-511.289-228.978-511.289-511.289s228.267-512.711 510.578-512.711c282.311 0 513.422 230.4 513.422 512.711s-230.4 511.289-512.711 511.289zM510.578 1.422c-255.289 0-446.578 192-446.578 447.289s191.289 447.289 446.578 447.289c256 0 448-192 448-447.289s-192-447.289-448-447.289z" />
<glyph unicode="&#xe937;" d="M512 384v0c-35.556 0-64 28.444-64 64v320c0 35.556 28.444 64 64 64v0c35.556 0 64-28.444 64-64v-320c0-35.556-28.444-64-64-64z" />
<glyph unicode="&#xe938;" d="M337.067 273.067v0c-24.889 24.889-24.889 65.422 0 90.311l129.422 129.422c24.889 24.889 65.422 24.889 90.311 0v0c24.889-24.889 24.889-65.422 0-90.311l-128.711-129.422c-24.889-24.889-65.422-24.889-91.022 0z" />
<glyph unicode="&#xe939;" d="M269.511 68.267c-125.867 77.511-205.511 215.467-205.511 380.444 0 193.422 109.511 349.867 273.778 415.289l28.444 75.378c-211.911-63.289-366.222-258.844-366.222-490.667 0-192 105.956-359.822 262.4-448l7.111 67.556z" />
<glyph unicode="&#xe93a;" d="M832.711 846.933l-22.044-59.733c91.733-80.356 147.911-199.822 147.911-338.489 0-244.622-175.644-430.933-415.289-445.867l-45.511-66.133c4.267 0 9.244 0 13.511 0 282.311 0 513.422 230.4 513.422 512.711-0.711 160-75.378 303.644-192 397.511z" />
<glyph unicode="&#xe93b;" d="M787.2 960c-61.867-133.689-123.022-267.378-184.889-400.356-16.356-35.556-33.422-66.844-54.044-110.933 56.889 0 99.556 0 155.733 0-115.911-171.378-226.133-347.733-337.067-512 25.6 168.533 50.489 336.356 76.8 510.578-49.067 0-77.511 0.711-123.022 0.711 23.467 74.667 41.956 150.756 63.289 219.733 25.6 81.067 51.2 162.133 76.089 242.489 5.689 15.644 12.089 32.711 16.356 49.067h310.756z" />
<glyph unicode="&#xe93c;" d="M511.289 960c-282.311 0-511.289-228.978-511.289-511.289s228.267-512.711 510.578-512.711c282.311 0 513.422 230.4 513.422 512.711s-230.4 511.289-512.711 511.289zM510.578 1.422c-255.289 0-446.578 192-446.578 447.289s191.289 447.289 446.578 447.289c256 0 448-192 448-447.289s-192-447.289-448-447.289z" />
<glyph unicode="&#xe93d;" d="M543.289 768.711c19.911-2.133 39.111-6.4 58.311-13.511 18.489-7.111 35.556-17.067 51.2-29.867 14.933-12.8 27.733-27.733 38.4-45.511s17.778-38.4 22.044-62.578h-62.578c-17.067 52.622-52.622 83.2-107.378 91.022v-218.311c22.756-9.244 44.8-18.489 66.133-29.156s41.244-22.044 58.311-35.556c17.067-13.511 31.289-29.156 41.956-47.644s15.644-39.822 15.644-64.711c0-28.444-5.689-53.333-16.356-73.244-10.667-20.622-24.889-37.689-42.667-51.2-17.067-13.511-36.978-24.178-58.311-32s-43.378-12.089-65.422-14.222v-71.111h-61.156v73.956c-44.8 8.533-83.2 29.867-115.2 65.422-32 34.844-51.911 78.222-59.733 128.711h65.422c6.4-32.711 18.489-61.156 36.978-84.622s42.667-39.111 72.533-46.222v236.089c-20.622 9.244-40.533 18.489-60.444 28.444-19.2 9.956-36.978 22.044-51.911 34.844-14.933 13.511-27.022 28.444-36.267 46.222-9.244 17.067-13.511 37.689-13.511 60.444 0 20.622 4.267 39.822 12.8 57.6s19.911 33.422 34.844 46.933c14.222 13.511 32 24.178 51.2 32.711 19.911 8.533 40.533 14.222 63.289 16.356v66.133h61.156v-65.422zM384.711 617.244c0-24.889 9.244-45.511 27.733-61.156 18.489-16.356 41.956-29.867 69.689-42.667v194.133c-30.578-4.978-54.044-15.644-71.822-32-17.067-17.067-25.6-36.267-25.6-58.311zM660.622 311.467c0 12.089-3.556 23.467-9.956 33.422-6.4 10.667-15.644 19.911-27.022 29.156s-24.178 17.067-37.689 24.889c-14.222 7.111-28.444 14.222-42.667 20.622v-216.178c36.267 3.556 65.422 15.644 86.044 36.267s31.289 44.8 31.289 71.822z" />
<glyph unicode="&#xe93e;" d="M553.956 60.444h-82.489v76.089c-43.378 9.956-81.067 32.711-112.356 66.844-33.422 36.267-54.044 81.778-62.578 134.4l-2.133 12.089h86.756l1.422-8.533c5.689-30.578 17.778-57.6 34.844-80.356 14.222-18.489 32-31.289 53.333-38.4v214.756c-18.489 8.533-36.978 17.067-54.044 26.311-19.911 10.667-38.4 22.756-54.044 36.267-16.356 14.222-29.156 30.578-39.111 49.067s-14.933 40.533-14.933 65.422c0 22.044 4.978 43.378 13.511 62.578 9.244 19.2 21.333 36.267 36.978 50.489s33.422 25.6 54.756 34.844c17.778 7.822 36.978 12.8 56.889 15.644v68.267h82.489v-67.556c17.778-2.133 34.844-7.111 51.2-13.511 19.911-7.822 37.689-18.489 54.044-31.289 16.356-13.511 29.867-29.156 41.244-48.356s19.2-41.244 23.467-66.133l2.133-12.8h-82.489l-2.133 7.111c-14.222 44.8-42.667 71.822-86.756 81.778v-198.4c20.622-8.533 40.533-17.067 59.733-27.022 22.044-10.667 42.667-22.756 60.444-36.978 18.489-14.222 33.422-31.289 44.8-50.489 11.378-19.911 17.067-43.378 17.067-69.689 0-29.867-5.689-56.889-17.778-78.222-11.378-21.333-27.022-39.822-44.8-54.044-18.489-14.222-39.111-25.6-61.156-33.422-19.2-6.4-38.4-11.378-58.311-13.511v-73.244zM492.8 81.778h39.822v71.111l9.956 0.711c20.622 1.422 41.956 6.4 62.578 13.511s39.111 17.067 55.467 29.867c16.356 12.8 29.156 28.444 39.822 47.644 9.956 18.489 14.933 41.956 14.933 68.267 0 22.756-4.978 42.667-14.222 59.022-9.956 17.067-22.756 32-39.111 44.089-16.356 12.8-35.556 24.178-56.178 34.133-21.333 9.956-43.378 19.911-65.422 29.156l-6.4 2.844v238.933l12.089-1.422c56.178-7.822 94.578-38.4 113.778-91.022h41.956c-4.267 17.067-10.667 32.711-18.489 46.222-9.956 17.067-22.044 31.289-36.267 42.667s-30.578 21.333-48.356 27.733c-17.778 7.111-36.267 11.378-55.467 12.8l-9.956 0.711v66.133h-39.822v-65.422l-9.956-1.422c-21.333-2.133-41.244-7.822-60.444-15.644-18.489-7.822-34.844-18.489-48.356-30.578s-24.178-27.022-32-43.378c-7.822-16.356-11.378-34.133-11.378-53.333 0-21.333 4.267-39.822 12.089-55.467 8.533-16.356 19.911-30.578 34.133-42.667 14.222-12.8 31.289-24.178 49.778-33.422 19.2-9.956 39.111-19.2 59.733-28.444l6.4-2.844v-257.422l-13.511 3.556c-32 7.822-58.311 24.889-78.222 50.489-17.778 22.756-30.578 49.778-36.978 80.356h-44.8c8.533-43.378 27.022-80.356 54.756-110.933 29.867-32.711 66.844-54.044 109.511-61.867l8.533-1.422v-73.244zM532.622 192v244.622l14.933-7.111c14.933-7.111 29.156-14.222 43.378-21.333 14.222-7.822 27.733-16.356 39.822-25.6 12.089-9.956 22.044-20.622 29.156-31.289 7.822-12.089 11.378-25.6 11.378-39.822 0-29.867-11.378-56.889-34.844-78.933-22.756-22.044-54.044-34.844-92.444-39.111l-11.378-1.422zM553.956 403.2v-187.022c28.444 4.267 51.2 14.933 68.267 31.289 19.2 18.489 28.444 39.111 28.444 64 0 9.956-2.844 19.2-8.533 27.733-6.4 9.244-14.222 18.489-24.889 26.311-10.667 8.533-22.756 16.356-36.267 23.467-8.533 4.978-17.778 9.956-27.022 14.222zM492.8 497.778l-14.933 6.4c-29.156 12.8-53.333 27.022-72.533 44.089-20.622 17.778-31.289 41.244-31.289 69.689 0 24.889 9.956 46.933 29.156 65.422 18.489 18.489 44.8 29.867 77.511 34.844l12.089 2.133v-222.578zM471.467 694.756c-22.044-4.978-39.822-14.222-53.333-27.022-14.933-14.933-22.756-31.289-22.756-50.489 0-22.044 7.822-39.111 24.178-53.333 14.222-12.089 32-23.467 51.911-33.422v164.267z" />
<glyph unicode="&#xe93f;" glyph-name="refresh" d="M12.023-52.644c0 130.254 0 261.177 0 392.099 132.926 0 265.185 0 400.115 0-50.098-48.762-98.86-96.188-147.622-144.282 24.047-24.047 49.43-42.75 78.153-58.114 46.090-24.047 94.852-37.406 146.286-40.746 153.633-10.020 287.896 80.157 346.009 212.415 16.699 38.074 50.766 51.434 86.168 44.086 36.738-8.016 62.789-43.418 56.11-80.157-3.34-19.371-13.359-38.074-22.711-56.11-75.481-138.938-190.372-225.106-345.341-259.173-19.371-4.008-38.742-5.344-58.114-7.348-2.672-0.668-5.344-1.336-8.684-2.004-20.707 0-41.414 0-62.789 0-15.363 2.004-30.727 4.008-45.422 6.68-79.489 12.023-151.629 42.082-216.423 89.508-20.707 15.363-40.078 32.731-60.785 49.43-1.336-1.336-2.672-2.004-4.008-3.34-45.422-45.422-90.844-90.844-136.266-136.266-1.336-1.336-2.672-3.34-4.008-5.344 1.336-1.336 0-1.336-0.668-1.336zM614.534 555.877c50.098 48.762 98.192 96.188 146.954 144.282-23.379 24.047-48.762 42.75-77.485 58.114-53.438 28.723-111.551 43.418-171.669 42.75-89.508-1.336-168.329-31.395-235.126-91.512-32.731-30.059-59.449-64.125-78.821-104.204-5.344-10.688-8.684-23.379-15.363-32.731-22.043-30.727-64.125-39.41-96.188-21.375-33.399 18.703-47.426 58.114-32.731 94.184 27.387 67.465 69.469 124.911 122.907 174.341 68.133 60.117 146.954 102.2 237.13 118.899 156.305 28.723 297.247-6.68 420.154-108.211 10.688-8.684 20.707-18.035 32.731-28.723 46.758 49.43 93.516 98.192 140.274 146.954 1.336-1.336 2.672-2.004 4.008-3.34 0-129.586 0-259.173 0-389.427-130.922 0-262.513 0-396.775 0z" />
<glyph unicode="&#xe940;" glyph-name="reports" d="M916.457 617.331c0-201.059 0-402.119 0-603.178-0.668-2.004-2.004-4.008-2.004-6.012-4.008-34.067-23.379-54.774-55.442-65.461-6.012-2.004-12.691-3.34-19.371-5.344-218.427 0-437.521 0-655.948 0-2.004 0.668-4.676 2.004-6.68 2.004-34.067 7.348-58.114 25.383-66.797 60.785-1.336 4.676-2.004 8.684-3.34 13.359 0 288.564 0 577.127 0 866.359 0.668 3.34 2.004 6.68 2.004 10.020 4.008 20.039 12.691 36.738 29.391 48.762 18.035 12.691 38.074 18.035 59.449 18.035 121.571 0 243.142 0 364.712 0 4.008 0 7.348-0.668 12.023-0.668 0-113.555 0-225.774 0-339.329 5.344 0 9.352 0 13.359 0 104.204 0 207.739 0 311.943 0 6.68 1.336 12.023 0.668 16.699 0.668zM744.788 489.748c-154.969 0-309.939 0-464.908 0 0-28.055 0-55.442 0-83.496 154.969 0 309.271 0 464.908 0 0 28.055 0 55.442 0 83.496zM279.88 279.337c155.637 0 309.939 0 464.908 0 0 28.055 0 55.442 0 82.828-155.637 0-309.939 0-464.908 0 0-28.055 0-54.774 0-82.828zM532.373 234.583c-84.164 0-168.329 0-252.493 0 0-28.055 0-55.442 0-83.496 84.164 0 168.329 0 252.493 0 0 28.723 0 56.11 0 83.496zM911.781 702.831c-82.16 0-166.325 0-250.489 0 0 84.164 0 168.329 0 250.489 82.828-82.828 166.993-166.993 250.489-250.489z" />
<glyph unicode="&#xe941;" glyph-name="reset" d="M408.13 4.133c-25.383 0-62.121 10.688-84.832 16.699-198.387 53.438-335.99 246.481-322.63 451.549 14.027 216.423 171.001 386.087 382.748 414.81 235.126 32.063 448.209-120.903 496.971-354.693 0.668-2.004 1.336-4.008 2.004-8.016 7.348 0 14.027-0.668 21.375-0.668 30.727 0 61.453 0.668 92.18-0.668 9.352-0.668 19.371-0.668 28.055-0.668-3.34-9.352-34.735-55.442-41.414-64.793-30.727-40.746-34.067-46.758-66.129-86.168-28.723-35.402-57.446-70.805-86.168-106.207-19.371-23.379-31.395-24.047-50.098-1.336-62.121 75.481-96.856 122.907-158.309 199.055-5.344 6.012-38.742 51.434-42.082 59.449 11.356 1.336 22.043 0 30.059 0.668 38.742 0.668 77.485 0.668 116.227 0.668-12.023 97.524-122.907 199.723-232.454 215.755-138.27 20.039-267.856-50.098-321.294-174.341-52.102-121.571-16.031-264.517 84.832-346.009 100.864-80.825 256.501-98.86 386.755 10.688 30.059-38.074 60.785-76.817 91.512-115.559-66.129-56.778-140.274-91.512-225.106-104.871-5.344-0.668-33.399-4.676-44.086-4.676-33.399-0.668-24.047-0.668-58.114-0.668z" />
<glyph unicode="&#xe942;" glyph-name="routing" d="M876.378 372.853c-2.004-1.336-4.008-2.672-5.344-4.008-29.391-28.055-59.449-56.778-89.508-84.832-3.34-2.672-8.016-5.344-12.023-5.344-196.384 0-392.767 0-589.819 0-2.004 0-4.676 0-9.352 0 28.055 32.731 55.442 63.457 82.828 94.852-27.387 31.395-54.106 62.121-82.828 94.184 4.008 0 6.68 0.668 8.684 0.668 196.384 0 392.767 0 588.483 0 5.344 0 9.352-1.336 13.359-5.344 30.059-28.723 59.449-56.778 89.508-85.5 1.336-1.336 3.34-2.672 4.676-3.34s1.336-0.668 1.336-1.336zM147.622 714.855c2.004 1.336 4.008 3.34 6.012 4.676 29.391 28.055 58.781 56.778 88.172 84.164 2.672 2.672 7.348 4.676 11.356 4.676 197.052 0 393.435 0 590.487 0 2.004 0 4.676 0 8.016-0.668-28.055-32.063-54.774-62.789-82.16-94.184 27.387-31.395 54.106-62.121 82.828-94.852-4.676 0-7.348 0-10.020 0-195.716 0-392.099 0-587.815 0-4.676 0-10.020 2.004-12.691 5.344-29.391 28.055-58.781 56.11-87.504 84.164-2.004 2.004-4.008 3.34-6.012 4.676-0.668 0.668-0.668 1.336-0.668 2.004zM398.779-62.664c0 3.34-0.668 6.012-0.668 9.352 0 94.852 0 190.372 0 285.224 0 2.672 0 5.344 0 8.684 63.457 0 125.579 0 189.036 0 0-2.672 0.668-5.344 0.668-7.348 0-95.52 0-191.708 0-287.228 0-2.672-0.668-5.344-1.336-8.016-62.789-0.668-125.579-0.668-187.7-0.668zM398.779 847.113c0 37.406 0 74.813 0 112.887 62.789 0 125.579 0 188.368 0 0-37.406 0-74.813 0-112.887-62.789 0-125.579 0-188.368 0zM398.779 506.447c0 25.383 0 50.098 0 75.481 62.789 0 125.579 0 188.368 0 0-24.715 0-49.43 0-75.481-62.789 0-125.579 0-188.368 0z" />
<glyph unicode="&#xe943;" glyph-name="search" d="M1024 14.153c-20.707-20.039-41.414-39.41-61.453-59.449-5.344-5.344-10.688-12.023-14.027-16.699-106.207 103.536-210.411 205.735-315.95 309.271-106.207-77.485-225.106-100.864-354.025-62.121-92.18 26.719-163.653 83.496-215.087 163.653-105.539 164.321-76.817 378.072 68.133 510.33 138.938 126.915 353.357 134.262 502.314 20.039 150.962-116.227 215.755-354.025 80.157-548.404 2.672-2.672 5.344-6.012 8.016-9.352 96.856-97.524 193.712-195.048 290.568-292.571 3.34-3.34 7.348-5.344 11.356-8.016 0-2.004 0-4.676 0-6.68zM394.771 280.673c155.637 0.668 281.884 128.25 281.216 283.888-0.668 156.305-126.915 281.884-281.884 281.884-155.637 0-281.884-127.583-281.216-283.888 0.668-155.637 127.583-282.552 281.884-281.884z" />
<glyph unicode="&#xe944;" glyph-name="sms" d="M937.244 960h-853.333c-46.933 0-85.333-38.4-85.333-85.333v-533.333c0-46.933 38.4-85.333 85.333-85.333h111.644l-66.844-320 391.111 320h417.422c46.933 0 85.333 38.4 85.333 85.333v533.333c0 46.933-38.4 85.333-85.333 85.333zM74.667 506.311l32.711 46.222c19.911-20.622 51.2-38.4 90.311-38.4 33.422 0 49.778 15.644 49.778 31.289 0 20.622-26.311 27.022-57.6 34.844-46.222 10.667-105.956 23.467-105.956 88.178 0 47.644 41.244 86.756 108.089 86.756 45.511 0 82.489-13.511 110.933-39.822l-33.422-44.089c-22.756 21.333-54.044 31.289-82.489 31.289-26.311 0-40.533-11.378-40.533-28.444 0-18.489 26.311-24.178 56.889-31.289 46.933-11.378 106.667-24.889 106.667-89.6 0-51.911-36.978-91.022-113.778-91.022-56.178-1.422-95.289 17.067-121.6 44.089zM666.311 466.489h-61.156v199.111l-80.356-199.111h-26.311l-80.356 199.111v-199.111h-60.444v284.444h84.622l69.689-172.089 68.978 172.089h85.333v-284.444zM832.711 460.8c-54.756 0-93.867 18.489-120.178 45.511l32.711 46.222c19.911-20.622 51.2-38.4 90.311-38.4 33.422 0 49.778 15.644 49.778 31.289 0 20.622-26.311 27.022-57.6 34.844-46.222 10.667-105.956 23.467-105.956 88.178 0 47.644 41.244 86.756 108.089 86.756 45.511 0 82.489-13.511 110.933-39.822l-33.422-44.089c-22.756 21.333-54.044 31.289-82.489 31.289-26.311 0-40.533-11.378-40.533-28.444 0-18.489 26.311-24.178 56.889-31.289 46.933-11.378 106.667-24.889 106.667-89.6-1.422-52.622-38.4-92.444-115.2-92.444z" />
<glyph unicode="&#xe945;" glyph-name="timestamp" d="M545.733-55.316c-24.047 0-48.094 0-72.141 0-22.043 3.34-44.754 6.012-66.129 11.356-273.868 60.117-444.869 320.626-390.095 595.162 50.766 257.837 303.927 436.185 564.436 396.775 209.743-31.395 374.064-184.36 420.154-391.431 4.676-22.043 8.016-44.754 12.023-67.465 0-26.051 0-52.77 0-78.821-2.004-12.023-4.008-24.715-6.012-36.738-28.723-199.723-179.684-366.048-376.736-413.474-28.055-6.68-56.778-10.020-85.5-15.363zM510.33 821.73c-203.063 2.004-370.724-164.989-372.728-370.056-2.004-203.063 162.985-373.396 364.044-375.4 209.743-2.004 378.74 160.313 380.744 366.048 2.004 211.079-160.981 377.404-372.060 379.408zM573.787 385.545c-22.711 0-43.418 0-64.793 0-60.117 0-120.903 0-181.020 0-26.719 0-64.793 32.731-68.801 58.114-0.668 4.676 0 10.688 2.004 15.363 10.020 30.059 42.082 52.102 72.809 52.102 37.406 0 74.145 0 113.555 0 0 6.012 0 12.023 0 17.367 0 54.774 0 108.879 0 163.653 0 26.051 31.395 64.793 56.778 70.137 3.34 0.668 6.012 0.668 9.352 0 21.375-2.672 58.781-42.082 59.449-64.125 0.668-102.868 0.668-207.071 0.668-312.611z" />
<glyph unicode="&#xe946;" glyph-name="user" d="M955.199 110.341c-14.695 111.551-73.477 195.716-169.665 249.153-173.673 95.52-352.689 96.856-529.701 9.352-90.176-44.086-150.962-116.895-177.68-215.087-4.676-16.031-7.348-32.731-11.356-48.762 0-21.375 0-42.75 0-63.457 14.027-66.129 64.125-88.84 123.575-94.852 55.442-5.344 110.883-6.012 166.325-6.68 126.915-1.336 254.497-2.004 381.412-1.336 33.399 0 66.797 1.336 100.196 5.344 58.114 7.348 106.207 30.059 120.235 94.184 0 22.043 0 44.754 0 66.797-1.336 1.336-3.34 3.34-3.34 5.344zM511.666 509.119c20.039 3.34 41.414 4.676 60.785 9.352 120.235 30.059 195.048 150.294 166.325 265.853-34.067 136.266-183.692 209.075-317.286 154.969-98.192-39.41-157.641-140.942-139.606-238.466 20.707-112.219 114.223-189.036 229.782-191.708z" />
<glyph unicode="&#xe947;" glyph-name="warning" d="M6.012 131.716c33.399 102.868 91.512 193.712 138.938 289.9 72.809 146.954 148.29 292.571 222.434 438.857 24.715 48.094 61.453 80.825 114.891 91.512 72.809 14.027 140.274-20.039 175.676-88.172 46.090-90.176 92.18-181.020 138.27-271.196 68.133-134.262 136.266-267.856 203.731-402.119 36.070-71.473 23.379-153.633-31.395-205.735-28.055-26.051-60.785-41.414-99.528-42.75-6.012 0-12.023-0.668-18.035-0.668-224.438 0-449.545 0.668-673.983-0.668-90.176-0.668-146.286 59.449-162.985 116.895-2.672 8.684-5.344 18.035-7.348 26.719-2.672 14.027-4.008 32.063-0.668 47.426zM514.338 60.243c113.555 0 227.11 0 340.665 0 24.047 0 40.746 11.356 44.086 34.735 2.004 13.359 0 30.059-6.012 42.75-112.887 223.77-227.11 447.541-340.665 671.311-8.016 16.031-20.039 27.387-38.742 28.055-18.703 0-30.727-11.356-38.742-27.387-1.336-2.004-2.004-4.676-3.34-6.68-85.5-169.665-171.669-337.993-257.169-506.99-27.387-53.438-54.106-107.543-81.492-160.981-19.371-37.406 4.676-76.817 47.426-76.149 110.883 2.672 222.434 1.336 333.986 1.336zM543.061 260.634c-1.336-6.012-3.34-8.684-5.344-9.352-15.363-2.004-36.070-4.008-47.426 4.008-10.020 6.68-8.684 29.391-12.691 44.754-14.027 49.43-28.723 98.192-41.414 147.622-5.344 20.039-8.684 40.078-10.688 60.785-5.344 53.438 36.070 84.832 80.825 88.172 35.402 2.672 66.129-9.352 86.836-40.078 14.695-24.047 12.023-50.766 6.68-75.481-8.016-37.406-20.707-73.477-30.727-110.883-5.344-19.371-10.688-38.742-14.695-58.781-4.676-18.703-7.348-31.395-11.356-50.766zM511.666 122.364c-19.371-0.668-38.742 4.008-55.442 16.699-22.711 17.367-22.711 43.418-0.668 60.785 30.059 23.379 88.172 22.711 118.231-1.336 21.375-17.367 21.375-40.078 0.668-57.446-18.035-14.695-38.742-18.703-62.789-18.703z" />
<glyph unicode="&#xe948;" glyph-name="wizards" d="M937.832-57.32c-20.039 5.344-33.399 20.039-46.758 34.735-106.207 116.895-211.747 233.122-317.954 350.017-2.004 2.004-3.34 4.008-6.012 8.016-28.723-78.153-56.11-153.633-84.164-231.118-9.352 12.023-18.035 23.379-26.719 34.067-49.43 63.457-98.86 126.915-147.622 190.372-5.344 6.68-10.688 9.352-18.703 9.352-90.176 2.672-179.684 5.344-269.86 8.016-4.008 0-8.016 0.668-13.359 1.336 3.34 4.676 5.344 8.016 7.348 11.356 50.098 74.145 100.196 148.29 150.962 221.766 5.344 8.016 6.68 14.027 4.008 24.047-25.383 86.836-50.098 174.341-75.481 261.845-0.668 2.672-1.336 4.676-2.004 8.684 4.676-1.336 8.684-2.004 12.691-2.672 86.168-24.715 172.337-49.43 258.505-74.813 8.684-2.672 15.363-1.336 22.711 4.008 73.477 50.766 147.622 100.864 221.766 150.962 3.34 2.004 6.68 4.676 11.356 7.348 0.668-3.34 1.336-6.012 1.336-8.684 2.672-91.512 6.012-183.692 8.684-275.204 0-7.348 2.672-12.023 8.684-16.699 71.473-55.442 142.946-110.883 214.419-166.325 2.672-2.004 5.344-4.676 10.020-8.684-80.825-29.391-160.313-58.114-239.802-86.836-1.336-1.336-2.672-2.672-4.008-4.008 4.008-2.004 8.016-2.672 11.356-6.012 120.903-109.547 241.806-219.763 362.708-329.31 14.027-12.691 24.715-27.387 29.391-46.090 0-1.336 0-3.34 0-4.676-0.668-5.344-3.34-11.356-6.68-15.363-17.367-18.035-32.063-39.41-56.778-48.762-6.012-3.34-12.023-2.672-20.039-0.668z" />
<glyph unicode="&#xe949;" horiz-adv-x="2405" d="M1593.014 341.31l45.16 321.764h68.869l-45.16-321.764h-68.869z" />
<glyph unicode="&#xe94a;" horiz-adv-x="2405" d="M1810.911 463.241l-16.935-121.932h-68.869l45.16 321.764h156.931c45.16 0 75.643-5.645 91.449-16.935 22.58-16.935 32.741-40.644 28.225-72.256-4.516-30.483-15.806-54.192-32.741-71.127-11.29-10.161-24.838-18.064-41.773-23.709 34.999-10.161 49.676-39.515 46.289-89.191-2.258-21.451-1.129-38.386 1.129-48.547h-76.772c-1.129 5.645-1.129 10.161-1.129 16.935 0 4.516 1.129 13.548 1.129 29.354 1.129 29.354-3.387 49.676-14.677 59.837-11.29 11.29-31.612 15.806-62.095 15.806h-55.321zM1818.814 520.82h95.965c15.806 0 28.225 2.258 34.999 6.774 11.29 7.903 18.064 20.322 20.322 37.257 2.258 19.193-3.387 31.612-16.935 37.257-5.645 2.258-13.548 3.387-25.967 3.387h-95.965l-12.419-84.675z" />
<glyph unicode="&#xe94b;" horiz-adv-x="2405" d="M2145.094 454.209l-15.806-112.9h-68.869l45.16 321.764h160.318c28.225 0 47.418-2.258 59.837-5.645s22.58-11.29 31.612-21.451c16.935-21.451 23.709-47.418 19.193-76.772-4.516-34.999-20.322-62.095-45.16-82.417-11.29-7.903-21.451-14.677-32.741-16.935-11.29-3.387-25.967-4.516-45.16-4.516h-108.384zM2152.997 510.659h93.707c16.935 0 29.354 2.258 36.128 7.903 11.29 7.903 18.064 21.451 20.322 41.773 3.387 21.451-2.258 34.999-16.935 41.773-5.645 2.258-13.548 3.387-25.967 3.387h-94.836l-12.419-94.836z" />
<glyph unicode="&#xe94c;" horiz-adv-x="2405" d="M1578.337 212.604h-15.806l2.258 18.064h15.806l1.129 4.516c1.129 9.032 4.516 15.806 9.032 20.322s11.29 6.774 19.193 6.774h20.322l-2.258-18.064h-12.419c-6.774 0-10.161-3.387-11.29-9.032v-3.387h21.451l-2.258-18.064h-21.451l-9.032-66.611h-23.709l9.032 65.482z" />
<glyph unicode="&#xe94d;" horiz-adv-x="2405" d="M1677.689 231.797c15.806 0 25.967-4.516 32.741-13.548 5.645-7.903 7.903-18.064 5.645-31.612s-7.903-23.709-16.935-31.612c-9.032-7.903-20.322-11.29-34.999-11.29-13.548 0-24.838 3.387-31.612 11.29s-9.032 18.064-6.774 32.741c2.258 13.548 7.903 23.709 16.935 31.612 10.161 7.903 21.451 12.419 34.999 12.419zM1675.431 213.733c-13.548 0-22.58-9.032-24.838-25.967s3.387-25.967 18.064-25.967c13.548 0 21.451 9.032 24.838 25.967 2.258 18.064-4.516 25.967-18.064 25.967z" />
<glyph unicode="&#xe94e;" horiz-adv-x="2405" d="M1739.784 230.668h34.999c12.419 0 21.451-2.258 24.838-6.774 4.516-4.516 5.645-12.419 3.387-23.709l-1.129-7.903h-22.58l1.129 4.516c1.129 5.645 0 10.161-1.129 12.419-2.258 2.258-5.645 3.387-11.29 3.387h-6.774l-9.032-66.611h-24.838l12.419 84.675z" />
<glyph unicode="&#xe94f;" horiz-adv-x="2405" d="M1944.132 166.315l-3.387-20.322h-40.644c-10.161 0-16.935 1.129-22.58 2.258s-10.161 4.516-13.548 7.903c-10.161 10.161-13.548 25.967-10.161 47.418 2.258 12.419 5.645 23.709 11.29 32.741s12.419 15.806 21.451 20.322c7.903 3.387 18.064 5.645 31.612 5.645h39.515l-3.387-20.322h-34.999c-11.29 0-19.193-3.387-25.967-9.032-4.516-4.516-7.903-13.548-10.161-25.967-2.258-16.935-1.129-28.225 5.645-33.87 4.516-3.387 11.29-5.645 21.451-5.645h33.87z" />
<glyph unicode="&#xe950;" horiz-adv-x="2405" d="M1982.518 145.993h-23.709l16.935 116.287h23.709l-16.935-116.287z" />
<glyph unicode="&#xe951;" horiz-adv-x="2405" d="M2053.645 231.797c15.806 0 25.967-4.516 32.741-13.548 5.645-7.903 7.903-18.064 5.645-31.612s-7.903-23.709-16.935-31.612c-9.032-7.903-20.322-11.29-34.999-11.29-13.548 0-24.838 3.387-31.612 11.29s-9.032 18.064-6.774 32.741c2.258 13.548 7.903 23.709 16.935 31.612 10.161 7.903 21.451 12.419 34.999 12.419zM2051.387 213.733c-13.548 0-22.58-9.032-24.838-25.967s3.387-25.967 18.064-25.967c13.548 0 21.451 9.032 24.838 25.967 1.129 18.064-4.516 25.967-18.064 25.967z" />
<glyph unicode="&#xe952;" horiz-adv-x="2405" d="M2162.029 164.057l9.032 66.611h23.709l-12.419-84.675h-46.289c-5.645 0-10.161 0-13.548 1.129-4.516 1.129-7.903 3.387-11.29 5.645-5.645 5.645-6.774 13.548-5.645 25.967l7.903 51.934h23.709l-7.903-54.192c-1.129-7.903 2.258-12.419 9.032-12.419h23.709z" />
<glyph unicode="&#xe953;" horiz-adv-x="2405" d="M2270.412 230.668l4.516 31.612h23.709l-16.935-116.287h-40.644c-7.903 0-14.677 1.129-19.193 2.258s-9.032 4.516-12.419 7.903c-7.903 7.903-10.161 19.193-7.903 32.741 2.258 14.677 9.032 25.967 19.193 33.87 6.774 5.645 15.806 7.903 27.096 7.903h22.58zM2261.38 164.057l6.774 48.547h-16.935c-6.774 0-12.419-2.258-16.935-6.774s-7.903-10.161-7.903-16.935c-1.129-7.903 0-13.548 3.387-18.064s7.903-6.774 14.677-6.774h16.935z" />
<glyph unicode="&#xe954;" horiz-adv-x="2405" d="M1355.925 377.438c-3.387 3.387-7.903 6.774-11.29 10.161 3.387-3.387 6.774-6.774 11.29-10.161z" />
<glyph unicode="&#xe955;" horiz-adv-x="2405" d="M1383.021 362.761c-1.129 1.129-1.129 2.258-2.258 4.516-23.709 37.257-57.579 68.869-97.094 90.32-10.161 5.645-20.322 10.161-30.483 14.677-14.677 251.766-225.799 451.599-482.082 451.599-106.126 0-206.606-33.87-291.281-97.094-48.547-37.257-90.32-83.546-121.932-135.48 36.128 0 71.127-5.645 104.997-14.677 72.256 93.707 185.155 152.415 308.216 152.415 198.703 0 363.537-149.028 384.988-340.957-68.869-1.129-130.964-28.225-176.123-72.256l67.74-67.74c29.354 28.225 69.998 45.16 112.9 45.16 32.741 0 62.095-9.032 88.062-24.838 2.258-1.129 3.387-2.258 5.645-3.387s4.516-3.387 6.774-4.516c3.387-2.258 7.903-5.645 11.29-9.032 2.258-1.129 3.387-3.387 5.645-4.516 1.129-1.129 2.258-2.258 3.387-3.387s2.258-2.258 3.387-3.387c0 0 0 0 1.129-1.129 27.096-30.483 44.031-68.869 44.031-109.513 0-110.642-98.223-168.221-150.157-168.221h-538.531c-34.999-40.644-79.030-72.256-128.706-94.836h663.85c100.481 0 244.992 93.707 244.992 263.056 1.129 47.418-13.548 93.707-38.386 133.222z" />
<glyph unicode="&#xe956;" horiz-adv-x="2405" d="M644.657 450.822c-3.387-13.548-63.224-168.221-145.641-205.477-46.289-21.451-83.546 31.612-123.061 88.062-44.031 62.095-92.578 132.093-162.576 106.126-33.87-12.419-68.869-42.902-102.739-91.449-21.451-31.612-42.902-69.998-64.353-114.029 0 0 0-1.129 0-1.129-32.741 124.19 15.806 255.153 114.029 331.925 24.838 19.193 51.934 34.999 82.417 46.289 27.096 10.161 55.321 16.935 83.546 19.193 9.032 1.129 19.193 1.129 28.225 1.129 24.838 0 49.676-3.387 73.385-9.032 91.449-20.322 172.736-82.417 216.767-171.607z" />
<glyph unicode="&#xe957;" horiz-adv-x="2405" d="M553.208 61.319c-24.838-20.322-53.063-36.128-84.675-48.547-153.544-58.708-329.667 12.419-400.794 160.318 1.129 6.774 15.806 44.031 38.386 84.675 25.967 47.418 63.224 100.481 107.255 120.803 46.289 21.451 83.546-31.612 123.061-88.062 44.031-62.095 92.578-132.093 162.576-106.126 56.45 20.322 111.771 89.191 165.963 205.477 0 0 0 1.129 0 1.129 32.741-123.061-14.677-252.895-111.771-329.667z" />
<glyph unicode="&#xe958;" horiz-adv-x="2405" d="M644.657 450.822c-3.387-13.548-63.224-168.221-145.641-205.477-46.289-21.451-83.546 31.612-123.061 88.062-44.031 62.095-92.578 132.093-162.576 106.126-33.87-12.419-68.869-42.902-102.739-91.449-21.451-31.612-42.902-69.998-64.353-114.029 0 0 0-1.129 0-1.129-32.741 124.19 15.806 255.153 114.029 331.925 24.838 19.193 51.934 34.999 82.417 46.289 27.096 10.161 55.321 16.935 83.546 19.193 9.032 1.129 19.193 1.129 28.225 1.129 24.838 0 49.676-3.387 73.385-9.032 91.449-20.322 172.736-82.417 216.767-171.607z" />
<glyph unicode="&#xe959;" horiz-adv-x="2405" d="M553.208 61.319c-24.838-20.322-53.063-36.128-84.675-48.547-153.544-58.708-329.667 12.419-400.794 160.318 1.129 6.774 15.806 44.031 38.386 84.675 25.967 47.418 63.224 100.481 107.255 120.803 46.289 21.451 83.546-31.612 123.061-88.062 44.031-62.095 92.578-132.093 162.576-106.126 56.45 20.322 111.771 89.191 165.963 205.477 0 0 0 1.129 0 1.129 32.741-123.061-14.677-252.895-111.771-329.667z" />
</font>
</defs>
</svg>
